<svg width="500" height="500" viewBox="0 0 500 500" fill="none" xmlns="http://www.w3.org/2000/svg">
<path d="M226.321 262.158C219.686 262.158 214.271 259.403 211.485 257.087C209.857 255.71 209.638 253.268 211.015 251.641C212.393 250.013 214.803 249.794 216.462 251.14C216.869 251.484 225.789 258.496 236.744 250.921C238.497 249.7 240.907 250.138 242.128 251.891C243.349 253.644 242.91 256.054 241.158 257.275C235.993 260.843 230.922 262.126 226.384 262.126L226.321 262.158Z" fill="#F5B067"/>
<path d="M273.835 262.158C267.199 262.158 261.784 259.403 258.999 257.087C257.371 255.71 257.152 253.268 258.529 251.641C259.906 250.013 262.316 249.794 263.975 251.14C264.382 251.484 273.303 258.496 284.258 250.921C286.011 249.7 288.421 250.138 289.642 251.891C290.862 253.644 290.424 256.054 288.671 257.275C283.507 260.843 278.436 262.126 273.898 262.126L273.835 262.158Z" fill="#F5B067"/>
<path d="M251.017 284.757C242.848 284.757 236.494 278.653 236.212 278.403C234.678 276.9 234.647 274.459 236.15 272.925C237.652 271.392 240.062 271.36 241.596 272.831C241.596 272.831 246.259 276.963 251.393 276.994C253.991 276.869 256.338 275.586 258.56 273.05C259.969 271.423 262.41 271.298 264.007 272.675C265.603 274.083 265.791 276.525 264.382 278.121C260.72 282.284 256.463 284.506 251.674 284.694C251.455 284.694 251.236 284.694 251.017 284.694V284.757Z" fill="#F5B067"/>
<path d="M274.492 305.071H225.883C206.978 305.071 191.609 289.702 191.609 270.797V231.797C191.609 230.451 192.329 229.199 193.456 228.479C194.614 227.79 196.054 227.728 197.243 228.354C203.097 231.39 209.451 232.924 216.086 232.924C228.074 232.924 239.436 227.697 247.23 218.557C247.981 217.68 249.045 217.211 250.172 217.211C251.299 217.211 252.363 217.712 253.114 218.557C260.908 227.697 272.27 232.924 284.258 232.924C290.894 232.924 297.248 231.39 303.101 228.354C304.29 227.728 305.73 227.759 306.888 228.479C308.046 229.168 308.735 230.451 308.735 231.797V270.828C308.735 289.734 293.366 305.102 274.461 305.102L274.492 305.071ZM199.341 237.713V270.797C199.341 285.414 211.235 297.34 225.883 297.34H274.492C289.141 297.34 301.035 285.445 301.035 270.797V237.713C295.683 239.653 289.986 240.686 284.289 240.686C271.456 240.686 259.28 235.647 250.203 226.758C241.126 235.647 228.919 240.686 216.117 240.686C210.421 240.686 204.724 239.653 199.372 237.713H199.341Z" fill="#F5B067"/>
<path d="M274.492 305.071H225.883C206.978 305.071 191.609 289.702 191.609 270.797V231.797C191.609 230.451 192.329 229.199 193.456 228.479C194.614 227.79 196.054 227.728 197.243 228.354C203.097 231.39 209.451 232.924 216.086 232.924C228.074 232.924 239.436 227.697 247.23 218.557C247.981 217.68 249.045 217.211 250.172 217.211C251.299 217.211 252.363 217.712 253.114 218.557C260.908 227.697 272.27 232.924 284.258 232.924C290.894 232.924 297.248 231.39 303.101 228.354C304.29 227.728 305.73 227.759 306.888 228.479C308.046 229.168 308.735 230.451 308.735 231.797V270.828C308.735 289.734 293.366 305.102 274.461 305.102L274.492 305.071ZM199.341 237.713V270.797C199.341 285.414 211.235 297.34 225.883 297.34H274.492C289.141 297.34 301.035 285.445 301.035 270.797V237.713C295.683 239.653 289.986 240.686 284.289 240.686C271.456 240.686 259.28 235.647 250.203 226.758C241.126 235.647 228.919 240.686 216.117 240.686C210.421 240.686 204.724 239.653 199.372 237.713H199.341Z" fill="#F5B067"/>
<path d="M305.323 336.308H195.021C180.717 336.308 169.073 324.664 169.073 310.36V229.292C169.073 222.813 170.044 216.397 171.922 210.199C172.548 208.165 173.267 206.193 174.081 204.283C184.191 180.088 207.698 164.438 233.959 164.438H266.417C292.24 164.438 315.59 179.744 325.919 203.407C326.889 205.598 327.734 207.883 328.423 210.199C330.332 216.334 331.271 222.782 331.271 229.292V310.36C331.271 324.664 319.627 336.308 305.323 336.308ZM233.959 172.169C210.859 172.169 190.138 185.941 181.218 207.288C180.498 208.978 179.872 210.731 179.34 212.484C177.681 217.93 176.836 223.596 176.836 229.292V310.36C176.836 320.407 185.005 328.577 195.052 328.577H305.354C315.402 328.577 323.571 320.407 323.571 310.36V229.292C323.571 223.533 322.726 217.899 321.036 212.484C320.41 210.45 319.69 208.478 318.845 206.537C309.768 185.66 289.204 172.201 266.448 172.201H233.99L233.959 172.169ZM274.492 305.07H225.883C206.978 305.07 191.609 289.702 191.609 270.796V231.796C191.609 230.45 192.329 229.198 193.456 228.478C194.614 227.79 196.054 227.727 197.243 228.353C203.097 231.389 209.451 232.923 216.086 232.923C228.074 232.923 239.436 227.696 247.23 218.556C247.981 217.68 249.045 217.21 250.172 217.21C251.299 217.21 252.363 217.711 253.114 218.556C260.908 227.696 272.27 232.923 284.258 232.923C290.894 232.923 297.248 231.389 303.101 228.353C304.29 227.727 305.73 227.759 306.888 228.478C308.046 229.167 308.735 230.45 308.735 231.796V270.828C308.735 289.733 293.366 305.101 274.461 305.101L274.492 305.07ZM199.341 237.712V270.796C199.341 285.414 211.235 297.339 225.883 297.339H274.492C289.141 297.339 301.035 285.445 301.035 270.796V237.712C295.683 239.653 289.986 240.686 284.289 240.686C271.456 240.686 259.28 235.646 250.203 226.757C241.126 235.646 228.919 240.686 216.117 240.686C210.421 240.686 204.724 239.653 199.372 237.712H199.341Z" fill="#F5B067"/>
<path d="M130.074 122.559C129.729 123.248 129.166 123.342 127.977 123.154C125.159 122.59 123.156 122.903 121.435 124.75L120.214 126.033C118.211 128.13 118.242 128.913 119.119 129.727L122.311 132.732C123.501 133.858 124.314 133.358 125.473 132.137L125.973 131.605C128.196 129.257 127.069 128.537 127.977 127.567C128.477 127.035 129.009 127.16 129.604 127.504L133.454 129.789C134.643 130.541 134.769 130.916 134.424 131.605C133.485 133.232 130.293 130.509 127.726 133.232L127.225 133.764C126.099 134.985 125.629 135.799 126.818 136.957L131.107 140.995C134.456 144.156 135.332 141.652 136.678 142.904C137.273 143.468 137.085 144.031 135.989 145.189L131.764 149.665C130.7 150.792 130.074 151.042 129.479 150.51C128.133 149.227 130.668 148.131 127.319 144.97L117.115 135.33C113.453 131.886 112.827 134.797 111.356 133.42C110.73 132.825 110.98 132.231 112.045 131.104L122.28 120.274C123.814 118.646 124.346 118.365 125.504 118.834C126.505 119.304 127.726 119.93 129.103 120.837C129.98 121.401 130.418 121.933 130.074 122.559Z" fill="#EB6654"/>
<path d="M154.3 121.745C155.113 123.905 154.675 128.381 150.763 131.699C146.569 135.236 141.279 134.704 137.867 130.666C134.048 126.096 134.8 119.867 138.931 116.362C142.468 113.388 146.318 113.795 148.885 115.986C149.386 116.393 149.511 116.988 149.166 117.708C147.288 121.62 145.661 124.531 143.532 128.256C145.285 129.101 147.789 129.289 150.074 127.38C151.89 125.877 152.547 123.717 152.766 121.808C152.86 120.713 153.924 120.65 154.331 121.745H154.3ZM139.745 125.376C140.308 126.034 140.966 126.66 141.56 127.035C142.781 125.001 143.971 122.997 145.003 120.963C145.316 120.306 145.504 119.774 144.659 119.179C142.812 117.802 140.465 117.958 139.244 119.429C137.711 121.088 138.149 123.467 139.745 125.376Z" fill="#EB6654"/>
<path d="M184.129 104.123C185.726 105.938 186.915 104.874 187.572 106.064C187.948 106.721 187.541 107.222 186.633 107.723L181.97 110.446C181.03 110.978 180.311 111.134 179.935 110.446C179.278 109.35 181.124 108.411 179.434 106.502L175.303 101.838C173.675 99.9601 172.11 98.1134 169.825 99.4906C168.166 100.461 167.352 102.934 169.136 105.97L171.64 110.258C173.456 113.357 174.645 111.635 175.49 113.106C175.866 113.763 175.396 114.264 174.52 114.796L169.731 117.582C168.761 118.146 168.072 118.271 167.697 117.582C166.852 116.142 168.949 115.955 167.133 112.856L164.567 108.474C163.127 106.001 161.468 104.154 159.089 105.594C157.305 106.69 156.522 109.381 158.213 112.324L160.717 116.612C162.532 119.711 163.69 118.02 164.535 119.491C164.911 120.149 164.473 120.65 163.565 121.182L158.776 123.967C157.837 124.499 157.117 124.656 156.742 123.967C155.896 122.528 158.025 122.308 156.209 119.21L152.516 112.856C151.984 111.917 151.264 111.541 150.294 111.416C149.824 111.385 149.386 111.322 149.104 110.853C148.791 110.32 148.916 109.914 149.511 109.1C150.388 107.785 152.109 105.97 152.641 105.625C153.205 105.281 153.643 105.5 154.018 106.158L155.27 108.317C155.333 105.406 156.773 103.153 158.933 101.869C161.624 100.304 164.034 100.461 166.038 102.026C166.069 99.1776 167.446 96.8927 169.669 95.6094C173.55 93.3557 176.179 95.1086 179.653 98.9898L184.129 104.029V104.123Z" fill="#EB6654"/>
<path d="M206.321 98.6138C206.759 99.8345 205.225 101.806 203.473 102.464C201.876 103.058 200.624 102.526 199.404 100.899C198.402 103.403 196.211 105.156 194.051 105.938C190.014 107.409 186.539 106.063 185.444 103.027C184.16 99.5528 186.289 95.922 191.453 94.0126C192.392 93.6683 193.175 93.5118 194.458 93.2301C192.956 91.1956 191.579 89.6306 188.855 90.6322C187.228 91.2269 185.976 92.4789 184.943 93.6683C184.411 94.3569 183.441 94.1065 183.66 92.9797C184.004 91.133 186.101 88.2534 189.575 86.9701C194.239 85.2799 196.774 87.9717 198.684 90.6948L202.972 96.861C203.911 98.2069 204.599 98.5199 205.382 98.2069C205.789 98.0504 206.133 98.1443 206.29 98.5825L206.321 98.6138ZM197.807 98.3947C197.463 97.8 196.806 97.0175 196.023 95.8594C195.46 95.1082 193.926 95.2647 192.768 95.7029C190.201 96.6419 189.137 98.5199 189.888 100.523C190.671 102.589 192.768 103.559 195.116 102.683C197.15 101.932 198.652 99.7719 197.839 98.3947H197.807Z" fill="#EB6654"/>
<path d="M204.036 80.2412C203.379 77.6433 201.657 78.3632 201.375 77.2364C201.25 76.7356 201.501 76.4226 202.283 75.7653C203.629 74.6385 206.102 73.0421 206.696 72.8856C207.322 72.7291 207.667 72.9795 207.886 73.7933L209.169 78.9266L213.019 94.0759C213.895 97.5502 215.492 96.2356 215.899 97.8945C216.086 98.6457 215.523 98.99 214.49 99.2404L209.138 100.618C208.074 100.868 207.354 100.837 207.166 100.086C206.759 98.4892 208.856 98.8648 207.948 95.3905L204.067 80.2725L204.036 80.2412Z" fill="#EB6654"/>
<path d="M234.335 90.6953C233.896 92.9489 231.236 96.5798 226.134 97.3936C220.719 98.2387 216.431 95.0774 215.617 89.8502C214.678 83.9658 218.559 78.989 223.912 78.1752C228.513 77.4553 231.58 79.8028 232.613 82.9955C232.832 83.5902 232.613 84.1536 231.956 84.6231C228.325 87.0019 225.414 88.6608 221.689 90.7579C222.785 92.3855 224.788 93.8254 227.73 93.3872C230.046 93.0115 231.737 91.5404 232.926 89.9754C233.583 89.099 234.522 89.5685 234.303 90.7266L234.335 90.6953ZM219.999 86.282C220.124 87.1271 220.375 88.0348 220.688 88.6295C222.785 87.534 224.851 86.4072 226.76 85.2178C227.355 84.8109 227.824 84.4666 227.386 83.5276C226.51 81.3992 224.412 80.3037 222.628 80.9297C220.469 81.5557 219.592 83.8406 219.999 86.282Z" fill="#EB6654"/>
<path d="M263.882 75.5462C263.131 75.7653 262.693 75.421 262.035 74.3881C260.564 71.9154 258.968 70.6634 256.464 70.6008H254.68C251.769 70.5069 251.237 71.039 251.205 72.2597L251.112 76.6417C251.112 78.2693 252.019 78.551 253.678 78.5823H254.398C257.653 78.6449 257.403 77.3303 258.717 77.3616C259.437 77.3616 259.719 77.8311 259.844 78.551L260.721 82.9331C260.971 84.3416 260.752 84.6859 260.032 84.8424C258.217 85.218 258.06 81.055 254.335 80.9924H253.616C251.957 80.9611 251.018 81.1489 250.986 82.8392L250.861 88.7236C250.767 93.3247 253.24 92.2918 253.209 94.1385C253.209 94.9523 252.645 95.2027 251.049 95.1714L244.914 95.0462C243.38 95.0462 242.754 94.7332 242.754 93.9194C242.786 92.0727 245.321 93.1995 245.415 88.5984L245.665 74.5759C245.759 69.5366 243.161 71.039 243.224 69.0358C243.224 68.1906 243.85 67.9715 245.415 68.0028L260.314 68.2846C262.567 68.3159 263.131 68.535 263.538 69.6931C263.851 70.7573 264.226 72.0719 264.477 73.6995C264.665 74.7324 264.571 75.3897 263.851 75.5775L263.882 75.5462Z" fill="#EB6654"/>
<path d="M262.943 86.8142C263.725 81.055 268.859 77.1112 274.931 77.9563C280.221 78.6762 283.319 83.0895 282.631 88.1914C281.817 93.982 276.809 97.738 270.737 96.8929C265.635 96.2043 262.192 92.2292 262.943 86.7829V86.8142ZM277.185 90.1634C277.811 85.7187 276.183 80.6794 272.896 80.2412C270.142 79.8656 268.733 82.3383 268.358 85.0614C267.732 89.5374 269.453 94.1698 272.74 94.608C275.338 94.9836 276.809 92.8239 277.185 90.1947V90.1634Z" fill="#EB6654"/>
<path d="M304.197 91.2582L302.381 97.7373C301.63 100.46 303.946 100.46 303.665 101.556C303.508 102.088 303.039 102.37 302.1 102.589C300.816 102.871 298.531 102.996 297.498 102.714C296.466 102.432 296.184 101.712 296.528 100.116L296.779 99.1145C294.681 100.742 291.99 101.212 289.986 100.648C285.949 99.5214 284.446 96.1723 285.761 91.4147L287.107 86.5319C287.827 83.9652 285.949 83.7148 286.262 82.6193C286.387 82.1498 286.731 81.9307 287.733 81.7742C289.517 81.4612 292.428 81.3047 293.023 81.4925C293.617 81.649 293.774 82.0559 293.586 82.8384L292.146 87.9404L290.863 92.5728C290.08 95.3898 290.362 97.4243 292.616 97.9877C294.588 98.4885 297.217 96.9861 298.124 93.8248L299.22 89.9123C299.94 87.3457 298.062 87.0953 298.375 85.9997C298.5 85.5302 298.844 85.3424 299.846 85.1546C301.63 84.8416 304.541 84.6851 305.136 84.8729C305.73 85.0294 305.887 85.4363 305.668 86.2189L304.228 91.3208L304.197 91.2582Z" fill="#EB6654"/>
<path d="M323.79 108.348C323.29 110.727 324.855 111.04 324.291 112.292C323.978 113.012 323.29 112.918 322.351 112.48L317.405 110.289C316.404 109.851 315.903 109.381 316.216 108.661C316.717 107.503 318.532 108.411 319.064 105.907L320.441 99.8347C321.005 97.4246 321.286 94.9205 318.939 93.9189C317.061 93.1051 314.619 94.0441 313.242 97.1742L311.239 101.713C309.799 104.999 311.834 104.937 311.176 106.502C310.863 107.222 310.206 107.128 309.236 106.689L304.165 104.467C303.164 104.029 302.631 103.528 302.944 102.84C303.602 101.306 305.042 102.902 306.481 99.6156L309.455 92.886C309.893 91.8844 309.768 91.0706 309.298 90.2568C309.048 89.8499 308.829 89.4743 309.048 88.9735C309.298 88.4101 309.674 88.2849 310.707 88.2536C312.303 88.191 314.776 88.5353 315.371 88.7231C315.965 88.9735 316.059 89.443 315.746 90.1629L314.807 92.2913C317.092 90.7576 319.721 90.6011 322.006 91.6027C326.044 93.3868 326.42 96.6734 325.262 101.744L323.79 108.317V108.348Z" fill="#EB6654"/>
<path d="M350.427 105.156L342.352 118.021C340.849 120.462 343.103 121.119 342.508 122.09C342.226 122.559 341.694 122.684 340.661 122.622C339.409 122.528 337.125 122.027 336.186 121.432C335.278 120.869 335.247 120.086 335.998 118.647L336.373 117.958C334.37 118.803 331.929 118.96 329.425 117.269C325.606 114.828 324.73 110.133 327.39 105.876C330.927 100.179 337.5 99.5534 341.35 101.932C342.696 102.777 343.698 103.842 344.292 104.937L345.889 102.37C347.297 100.085 345.638 99.3343 346.233 98.364C346.483 97.9258 346.859 97.8632 347.892 97.9884C349.676 98.1762 352.524 98.8648 353.056 99.1778C353.588 99.4908 353.62 99.929 353.213 100.618L350.396 105.094L350.427 105.156ZM338.721 114.045L339.942 112.073C340.724 110.696 341.35 109.225 341.475 108.004C341.726 106.064 341.037 104.593 339.597 103.685C337.344 102.308 334.808 103.466 332.93 106.502C330.426 110.54 330.927 114.233 333.181 115.642C335.153 116.862 337.281 115.923 338.721 114.045Z" fill="#EB6654"/>
<path d="M358.346 131.855C356.374 133.045 351.898 133.483 347.892 130.228C343.635 126.753 343.134 121.464 346.483 117.363C350.239 112.731 356.531 112.324 360.725 115.736C364.324 118.678 364.637 122.497 362.978 125.439C362.665 126.002 362.133 126.253 361.319 126.033C357.125 124.938 353.933 123.874 349.895 122.497C349.394 124.406 349.676 126.879 351.992 128.757C353.807 130.259 356.061 130.509 358.002 130.322C359.097 130.196 359.348 131.229 358.346 131.855ZM352.055 118.271C351.523 118.928 351.022 119.711 350.771 120.368C352.994 121.182 355.216 121.964 357.376 122.59C358.096 122.778 358.659 122.872 359.066 121.933C360.067 119.836 359.473 117.582 357.814 116.675C355.905 115.485 353.62 116.362 352.055 118.302V118.271Z" fill="#EB6654"/>
<path d="M384.169 135.58L373.12 145.94C371.054 147.912 373.057 149.133 372.243 149.915C371.868 150.291 371.304 150.259 370.334 149.978C369.144 149.571 367.079 148.507 366.327 147.693C365.576 146.91 365.764 146.159 366.86 144.938L367.392 144.375C365.263 144.688 362.822 144.218 360.85 141.965C357.783 138.616 358.127 133.889 361.758 130.446C366.609 125.845 373.151 126.909 376.25 130.196C377.345 131.354 378.034 132.637 378.347 133.858L380.538 131.792C382.478 129.946 381.07 128.787 381.884 128.005C382.259 127.661 382.635 127.661 383.574 128.036C385.264 128.694 387.831 130.071 388.269 130.509C388.707 130.947 388.645 131.385 388.05 131.949L384.169 135.548V135.58ZM370.584 141.182L372.274 139.586C373.37 138.428 374.372 137.176 374.779 136.049C375.498 134.234 375.217 132.637 374.059 131.417C372.243 129.507 369.489 129.977 366.891 132.45C363.448 135.705 362.978 139.398 364.825 141.339C366.421 143.029 368.738 142.653 370.584 141.182Z" fill="#EB6654"/>
<path d="M139.182 369.423C138.524 369.048 138.43 368.484 138.712 367.295C139.432 364.54 139.244 362.506 137.523 360.659L136.302 359.376C134.299 357.279 133.548 357.248 132.671 358.061L129.479 361.066C128.289 362.193 128.727 363.038 129.885 364.259L130.386 364.791C132.609 367.17 133.391 366.043 134.299 367.013C134.8 367.545 134.643 368.077 134.236 368.641L131.732 372.334C130.918 373.492 130.511 373.586 129.885 373.179C128.32 372.146 131.2 369.11 128.665 366.419L128.164 365.886C127.037 364.666 126.223 364.165 125.003 365.292L120.715 369.329C117.365 372.491 119.838 373.524 118.492 374.807C117.897 375.37 117.334 375.151 116.239 373.993L112.013 369.517C110.949 368.39 110.73 367.764 111.324 367.201C112.67 365.918 113.641 368.516 116.99 365.354L127.194 355.714C130.856 352.271 127.976 351.457 129.447 350.08C130.073 349.485 130.668 349.798 131.732 350.925L141.936 361.755C143.47 363.382 143.751 363.946 143.188 365.041C142.656 366.012 141.967 367.201 140.966 368.516C140.34 369.361 139.808 369.768 139.182 369.392V369.423Z" fill="#EB6654"/>
<path d="M143.126 392.084C141.154 393.242 136.647 393.618 132.703 390.3C128.508 386.763 128.102 381.473 131.513 377.436C135.332 372.866 141.623 372.553 145.786 376.027C149.323 379.001 149.605 382.851 147.852 385.761C147.539 386.325 146.976 386.544 146.193 386.356C142.03 385.167 138.869 384.071 134.831 382.631C134.299 384.509 134.549 386.982 136.834 388.891C138.65 390.425 140.872 390.707 142.813 390.582C143.908 390.488 144.159 391.521 143.126 392.115V392.084ZM137.053 378.375C136.521 379.032 135.989 379.814 135.739 380.44C137.961 381.286 140.152 382.131 142.312 382.788C143 382.976 143.564 383.101 144.002 382.162C145.035 380.096 144.472 377.811 142.844 376.872C140.966 375.62 138.65 376.497 137.085 378.375H137.053Z" fill="#EB6654"/>
<path d="M174.77 412.399C173.988 414.684 175.459 415.185 174.77 416.343C174.394 417 173.737 416.875 172.861 416.343L168.197 413.62C167.258 413.087 166.789 412.524 167.164 411.867C167.821 410.771 169.512 411.867 170.357 409.457L172.391 403.572C173.236 401.225 174.05 398.94 171.734 397.625C170.075 396.655 167.508 397.187 165.756 400.223L163.252 404.511C161.436 407.61 163.533 407.798 162.657 409.269C162.281 409.926 161.593 409.77 160.685 409.269L155.896 406.483C154.926 405.92 154.488 405.388 154.863 404.73C155.708 403.29 156.898 405.012 158.713 401.913L161.28 397.531C162.719 395.059 163.502 392.711 161.092 391.334C159.276 390.301 156.522 390.958 154.801 393.9L152.297 398.189C150.481 401.287 152.547 401.475 151.671 402.946C151.295 403.603 150.638 403.478 149.699 402.946L144.91 400.16C143.971 399.628 143.501 399.065 143.877 398.408C144.722 396.968 145.943 398.721 147.758 395.622L151.451 389.268C151.983 388.329 151.983 387.515 151.608 386.639C151.42 386.201 151.232 385.794 151.514 385.324C151.827 384.792 152.234 384.698 153.236 384.823C154.832 384.949 157.242 385.543 157.805 385.825C158.369 386.169 158.4 386.639 158.024 387.296L156.741 389.456C159.276 388.079 162 388.204 164.159 389.456C166.851 391.021 167.884 393.212 167.54 395.716C170.044 394.339 172.673 394.432 174.927 395.716C178.808 397.969 178.557 401.162 176.898 406.076L174.707 412.461L174.77 412.399Z" fill="#EB6654"/>
<path d="M198.621 423.198C198.183 424.418 195.71 424.951 193.988 424.293C192.392 423.699 191.766 422.478 191.891 420.475C189.481 421.727 186.727 421.664 184.536 420.882C180.498 419.41 178.745 416.124 179.841 413.119C181.124 409.645 185.099 408.236 190.232 410.146C191.171 410.49 191.86 410.865 193.018 411.491C193.206 408.956 193.143 406.89 190.42 405.889C188.793 405.294 187.04 405.419 185.475 405.67C184.63 405.857 184.066 405.044 184.943 404.324C186.414 403.134 189.857 402.289 193.331 403.573C197.995 405.263 198.183 408.987 197.901 412.274L197.181 419.755C197.024 421.382 197.369 422.071 198.183 422.353C198.589 422.509 198.809 422.791 198.652 423.229L198.621 423.198ZM192.236 417.532C192.361 416.875 192.361 415.842 192.486 414.465C192.549 413.526 191.265 412.65 190.076 412.243C187.509 411.304 185.506 412.055 184.755 414.058C184.035 416.155 185.005 418.221 187.353 419.097C189.387 419.849 191.954 419.16 192.204 417.564L192.236 417.532Z" fill="#EB6654"/>
<path d="M207.729 406.076C208.386 403.478 206.508 403.291 206.821 402.164C206.947 401.663 207.322 401.475 208.324 401.319C210.045 400.974 212.988 400.755 213.582 400.912C214.208 401.068 214.396 401.475 214.208 402.258L212.862 407.391L209.012 422.54C208.136 426.015 210.139 425.608 209.732 427.267C209.545 428.018 208.887 428.049 207.854 427.767L202.502 426.39C201.438 426.14 200.843 425.733 201.031 424.982C201.438 423.385 203.097 424.7 203.973 421.226L207.792 406.076H207.729Z" fill="#EB6654"/>
<path d="M231.518 426.984C230.422 429.019 226.76 431.648 221.689 430.834C216.274 429.989 213.176 425.67 214.021 420.442C214.96 414.558 220.156 411.052 225.508 411.866C230.078 412.586 232.3 415.747 232.3 419.128C232.3 419.754 231.956 420.255 231.173 420.474C227.01 421.632 223.724 422.32 219.53 423.134C220.062 425.012 221.533 427.015 224.475 427.485C226.791 427.861 228.857 426.953 230.453 425.826C231.33 425.169 232.081 425.92 231.518 426.984ZM219.248 418.408C219.123 419.253 219.091 420.192 219.185 420.849C221.533 420.442 223.818 420.004 226.009 419.472C226.697 419.253 227.229 419.065 227.136 418.032C226.948 415.747 225.289 414.057 223.411 414.12C221.157 414.026 219.655 415.935 219.248 418.408Z" fill="#EB6654"/>
<path d="M263.506 412.649C262.786 412.899 262.317 412.555 261.628 411.553C260.063 409.143 258.435 407.923 255.931 407.985H254.147C251.236 408.079 250.704 408.611 250.736 409.801L250.798 414.183C250.798 415.81 251.769 416.061 253.427 416.029H254.147C257.403 415.967 257.09 414.652 258.404 414.621C259.124 414.621 259.406 415.059 259.594 415.748L260.627 420.098C260.908 421.476 260.752 421.851 260.001 422.039C258.185 422.509 257.872 418.314 254.179 418.377H253.459C251.8 418.408 250.861 418.659 250.892 420.318L250.986 426.202C251.08 430.803 253.49 429.676 253.521 431.523C253.521 432.337 252.989 432.619 251.424 432.65L245.289 432.744C243.756 432.744 243.13 432.525 243.098 431.711C243.098 429.864 245.634 430.897 245.571 426.296L245.321 412.273C245.227 407.234 242.723 408.83 242.66 406.827C242.66 405.982 243.255 405.732 244.82 405.7L259.687 405.45C261.941 405.419 262.505 405.606 262.943 406.733C263.318 407.766 263.725 409.081 264.007 410.708C264.226 411.741 264.163 412.399 263.475 412.618L263.506 412.649Z" fill="#EB6654"/>
<path d="M264.289 423.854C263.506 418.095 267.356 412.931 273.429 412.086C278.718 411.366 282.913 414.777 283.601 419.848C284.415 425.639 280.596 430.615 274.493 431.46C269.391 432.149 265.009 429.301 264.258 423.854H264.289ZM278.906 423.228C278.28 418.784 275.369 414.37 272.083 414.84C269.328 415.216 268.64 417.97 269.015 420.693C269.641 425.169 272.521 429.144 275.807 428.706C278.405 428.33 279.25 425.889 278.875 423.26L278.906 423.228Z" fill="#EB6654"/>
<path d="M304.635 411.553L306.45 418.033C307.202 420.756 309.205 419.566 309.518 420.631C309.674 421.163 309.393 421.663 308.704 422.352C307.765 423.26 305.856 424.543 304.823 424.825C303.79 425.106 303.164 424.637 302.663 423.103L302.35 422.102C301.38 424.574 299.314 426.358 297.311 426.922C293.273 428.049 290.268 425.952 288.922 421.163L287.576 416.28C286.856 413.713 285.135 414.464 284.822 413.338C284.697 412.868 284.885 412.524 285.667 411.866C287.013 410.677 289.454 409.049 290.049 408.893C290.644 408.736 290.988 408.987 291.207 409.769L292.584 414.871L293.868 419.504C294.65 422.352 295.934 423.917 298.156 423.26C300.128 422.665 301.599 420.005 300.722 416.843L299.627 412.931C298.907 410.364 297.186 411.115 296.873 409.988C296.747 409.519 296.935 409.175 297.718 408.517C299.064 407.328 301.505 405.7 302.1 405.544C302.694 405.387 303.039 405.638 303.258 406.42L304.635 411.553Z" fill="#EB6654"/>
<path d="M331.052 409.269C332.46 411.241 333.744 410.333 334.307 411.554C334.62 412.274 334.088 412.712 333.149 413.119L328.204 415.279C327.202 415.717 326.513 415.78 326.2 415.06C325.7 413.902 327.578 413.182 326.106 411.084L322.569 405.983C321.161 403.948 319.533 402.039 317.217 403.103C315.339 403.917 314.4 406.358 315.746 409.488L317.749 414.027C319.189 417.313 320.535 415.748 321.224 417.313C321.537 418.033 321.036 418.44 320.066 418.878L314.995 421.101C313.993 421.539 313.273 421.601 312.96 420.881C312.303 419.348 314.431 419.41 312.96 416.093L310.018 409.363C309.58 408.361 308.923 407.892 307.984 407.673C307.514 407.579 307.107 407.485 306.888 406.984C306.638 406.421 306.825 406.045 307.483 405.294C308.516 404.073 310.425 402.477 310.988 402.195C311.583 401.945 311.99 402.195 312.303 402.884L313.242 405.012C313.649 402.289 315.339 400.255 317.593 399.253C321.63 397.469 324.291 399.441 327.265 403.698L331.114 409.238L331.052 409.269Z" fill="#EB6654"/>
<path d="M342.445 383.007L350.364 395.934C351.867 398.376 353.494 396.654 354.089 397.593C354.371 398.063 354.246 398.595 353.745 399.471C353.088 400.567 351.616 402.382 350.709 402.945C349.801 403.509 349.081 403.196 348.111 401.85L347.673 401.224C347.547 403.384 346.608 405.669 343.979 407.14C340.098 409.456 335.497 408.141 332.899 403.916C329.362 398.219 331.741 392.053 335.591 389.643C336.937 388.798 338.345 388.391 339.597 388.328L338.001 385.762C336.592 383.477 335.184 384.635 334.558 383.664C334.307 383.226 334.37 382.851 334.933 382.006C335.904 380.503 337.782 378.25 338.314 377.905C338.846 377.592 339.253 377.749 339.691 378.437L342.445 382.976V383.007ZM345.2 397.437L343.979 395.465C343.071 394.15 342.039 392.929 341.006 392.303C339.378 391.208 337.75 391.177 336.311 392.053C334.088 393.43 333.994 396.216 335.872 399.283C338.376 403.321 341.882 404.51 344.167 403.133C346.139 401.913 346.233 399.565 345.2 397.437Z" fill="#EB6654"/>
<path d="M369.176 382.225C369.927 384.384 369.457 388.892 365.451 392.116C361.194 395.59 355.904 394.995 352.555 390.864C348.799 386.231 349.676 380.002 353.87 376.591C357.469 373.648 361.319 374.149 363.823 376.372C364.293 376.778 364.418 377.373 364.074 378.093C362.133 381.974 360.474 384.885 358.252 388.547C360.005 389.424 362.477 389.643 364.794 387.765C366.609 386.262 367.329 384.134 367.579 382.225C367.705 381.129 368.737 381.067 369.144 382.225H369.176ZM354.558 385.605C355.091 386.262 355.779 386.92 356.343 387.295C357.595 385.292 358.815 383.289 359.88 381.286C360.193 380.628 360.412 380.096 359.567 379.502C357.72 378.093 355.372 378.218 354.152 379.658C352.587 381.286 352.993 383.696 354.558 385.605Z" fill="#EB6654"/>
<path d="M373.276 355.025L384.2 365.511C386.266 367.483 387.392 365.417 388.206 366.168C388.582 366.544 388.613 367.076 388.363 368.077C388.018 369.298 387.048 371.426 386.297 372.209C385.546 372.991 384.794 372.835 383.511 371.802L382.916 371.301C383.355 373.43 383.01 375.871 380.851 377.968C377.689 381.192 372.9 381.098 369.301 377.655C364.449 373.054 365.169 366.45 368.268 363.194C369.363 362.036 370.616 361.285 371.836 360.91L369.645 358.844C367.705 356.997 366.64 358.468 365.795 357.686C365.42 357.341 365.42 356.966 365.764 355.995C366.327 354.274 367.579 351.645 367.986 351.175C368.424 350.737 368.863 350.768 369.426 351.332L373.245 355.025H373.276ZM379.599 368.296L377.908 366.7C376.719 365.667 375.404 364.728 374.246 364.384C372.4 363.758 370.835 364.102 369.645 365.354C367.83 367.263 368.456 369.987 371.054 372.459C374.497 375.746 378.19 375.996 380.037 374.056C381.633 372.365 381.132 370.08 379.599 368.296Z" fill="#EB6654"/>
</svg>
