<svg width="402" height="309" viewBox="0 0 402 309" fill="none" xmlns="http://www.w3.org/2000/svg">
<path d="M118.138 148.98C112.26 148.98 106.839 149.666 102.54 151.701C108.189 158.036 111.367 166.177 111.367 175.669C111.367 202.129 86.9422 218.413 55.7463 218.413C49.8685 218.413 43.7623 217.727 38.7776 216.606L33.5852 219.763C28.6213 222.484 26.5651 224.955 26.5651 227.447C26.5651 231.061 30.179 232.64 38.7776 233.097L79.7144 235.361C91.2622 236.005 104.783 237.936 113.714 246.036C122.188 253.742 122.915 266.307 119.26 276.609C118.013 280.14 116.206 283.463 113.963 286.454C104.534 298.999 88.4168 304.793 73.525 307.556C60.0872 310.048 36.3684 307.867 23.9482 301.761C12.8572 296.319 3.6148 286.163 0.686296 273.992C-1.9722 262.922 3.1371 252.932 15.2457 252.412C15.6404 252.412 16.0142 252.392 16.4088 252.392C18.4442 252.392 20.9366 252.62 24.322 253.306C23.4082 256.026 22.972 258.498 22.972 260.99C22.972 274.22 30.3244 288.718 43.3469 293.204C50.5539 295.675 58.2802 296.61 65.8611 295.966C73.2966 295.343 81.3759 293.474 87.3991 288.842C92.3422 285.062 96.0184 278.395 94.5646 271.998C93.4015 266.868 88.4583 264.293 83.7644 263.088C78.8005 261.821 73.6289 261.551 68.5196 261.281C55.8294 260.637 43.1184 259.952 30.4283 259.287C8.49564 258.166 1.03938 250.481 1.03938 239.39C1.03938 227.634 9.4095 220.843 22.5151 214.965L27.2713 212.93C13.9373 207.509 1.49631 197.103 1.49631 178.328C1.49631 151.639 25.9213 135.812 58.2594 135.812C72.0504 135.812 84.2629 138.762 93.3184 144.182C97.6177 136.498 104.389 129.706 114.129 129.706C124.992 129.706 128.606 138.533 126.342 148.918H118.2L118.138 148.98ZM79.2574 177.476C79.2574 158.036 71.1158 145.595 56.2033 145.595C41.2907 145.595 33.8137 157.579 33.8137 176.126C33.8137 195.795 41.7269 208.693 56.6602 208.693C71.5935 208.693 79.2782 196.252 79.2782 177.497" fill="#FEF6ED"/>
<path d="M130.808 201.215C130.808 162.314 159.968 135.874 197.748 135.874C235.528 135.874 260.617 160.071 260.617 197.601C260.617 235.132 231.436 262.942 193.905 262.942C156.375 262.942 130.808 238.746 130.808 201.215ZM222.941 187.86C205.349 156.768 185.618 143.517 167.902 153.528C150.788 163.227 152.948 183.561 168.317 210.707C185.909 241.799 205.744 255.257 223.46 245.226C240.575 235.526 238.415 215.193 222.941 187.839" fill="#FEF6ED"/>
<path d="M305.998 192.097C301.304 192.097 296.88 190.145 293.204 186.469C288.386 181.65 282.653 171.494 282.695 150.517C282.736 132.343 291.273 117.784 299.518 107.96L294.077 102.518C287.513 107.856 272.248 118.158 251.229 119.342C231.81 120.422 221.632 114.897 216.502 110.037C212.265 106.049 209.96 101.065 209.96 96.0383C209.96 85.2797 220.698 72.7349 250.959 72.7349C268.488 72.7349 284.772 80.8143 294.263 89.3505L299.456 84.1582C293.848 77.4288 282.799 61.6024 282.674 41.0406C282.549 20.6657 288.261 10.6132 293.08 5.75316C296.777 2.03541 301.346 0 305.978 0C316.715 0 329.281 10.7378 329.281 40.9991C329.281 60.0447 319.789 75.2273 312.437 84.0958L317.38 89.0598C323.382 82.8912 337.028 72.4234 360.498 72.7349C388.038 73.0672 401.995 80.7935 401.995 95.6645C401.995 107.067 389.159 119.342 360.996 119.342C340.268 119.342 324.545 108.292 317.816 102.581L312.188 108.209C317.505 115.666 329.239 134.047 329.26 150.517C329.302 171.494 323.569 181.63 318.751 186.469C315.075 190.145 310.651 192.097 305.957 192.097M305.666 115.375C298.854 123.87 292.187 135.916 292.145 150.538C292.103 169.189 296.984 176.873 299.892 179.781C303.672 183.561 308.324 183.561 312.105 179.781C315.012 176.873 319.893 169.189 319.852 150.538C319.831 137.868 310.754 122.831 305.666 115.375ZM250.959 82.2058C229.276 82.2058 219.41 89.3921 219.41 96.0591C219.41 98.4268 220.719 101.023 223.003 103.183C226.098 106.091 233.803 110.847 250.689 109.912C268.135 108.936 281.262 100.504 287.285 95.8306C279.849 89.4544 266.349 82.2058 250.959 82.2058ZM324.255 95.5814C330.153 100.483 343.737 109.892 361.038 109.892C384.029 109.892 392.586 101.168 392.586 95.6645C392.586 84.8435 375.099 82.372 360.435 82.185C340.247 81.915 328.969 90.7213 324.255 95.5606M300.972 96.0383L305.998 101.065L311.024 96.0383L305.998 91.0121L300.972 96.0383ZM305.998 9.45014C303.88 9.45014 301.741 10.4678 299.809 12.4202C296.901 15.3487 292.041 22.9503 292.145 40.9783C292.249 57.5316 300.993 70.8657 305.957 77.1173C312.229 69.2664 319.852 56.5554 319.831 41.0198C319.831 19.3364 312.645 9.47091 305.978 9.47091" fill="#FEF6ED"/>
</svg>
