<svg width="193" height="193" viewBox="0 0 193 193" fill="none" xmlns="http://www.w3.org/2000/svg">
<path d="M96.9983 192.097C92.3044 192.097 87.8804 190.145 84.2042 186.469C79.3857 181.65 73.6533 171.494 73.6949 150.517C73.7364 132.343 82.2727 117.784 90.5182 107.96L85.0766 102.518C78.5134 107.856 63.2478 118.158 42.229 119.342C22.8095 120.422 12.6324 114.897 7.50237 110.037C3.26538 106.049 0.959961 101.065 0.959961 96.0383C0.959961 85.2797 11.6978 72.7349 41.959 72.7349C59.4885 72.7349 75.7718 80.8143 85.2635 89.3505L90.4559 84.1581C84.8481 77.4288 73.7987 61.6024 73.6741 41.0406C73.5495 20.6657 79.2611 10.6132 84.0796 5.75316C87.7766 2.03541 92.3459 0 96.9775 0C107.715 0 120.281 10.7378 120.281 40.9991C120.281 60.0447 110.789 75.2273 103.437 84.0958L108.38 89.0598C114.382 82.8912 128.028 72.4234 151.498 72.7349C179.038 73.0672 192.995 80.7935 192.995 95.6645C192.995 107.067 180.16 119.342 151.996 119.342C131.268 119.342 115.545 108.292 108.816 102.581L103.188 108.209C108.505 115.666 120.239 134.047 120.26 150.517C120.302 171.494 114.569 181.63 109.751 186.469C106.075 190.145 101.651 192.097 96.9568 192.097M96.666 115.375C89.8535 123.869 83.1865 135.916 83.145 150.538C83.1035 169.189 87.9843 176.873 90.892 179.781C94.6721 183.561 99.3245 183.561 103.105 179.781C106.012 176.873 110.893 169.189 110.852 150.538C110.831 137.868 101.754 122.831 96.666 115.375ZM41.959 82.2058C20.2756 82.2058 10.4101 89.3921 10.4101 96.0591C10.4101 98.4268 11.7186 101.023 14.0032 103.183C17.0979 106.091 24.8034 110.847 41.689 109.912C59.1354 108.936 72.2618 100.504 78.2849 95.8306C70.8494 89.4544 57.3492 82.2058 41.959 82.2058ZM115.255 95.5814C121.153 100.483 134.737 109.892 152.038 109.892C175.029 109.892 183.586 101.168 183.586 95.6645C183.586 84.8436 166.099 82.372 151.435 82.185C131.247 81.915 119.969 90.7213 115.255 95.5606M91.972 96.0383L96.9983 101.065L102.024 96.0383L96.9983 91.0121L91.972 96.0383ZM96.9983 9.45014C94.8798 9.45014 92.7405 10.4678 90.809 12.4202C87.9012 15.3487 83.0412 22.9503 83.145 40.9783C83.2488 57.5316 91.9928 70.8657 96.9568 77.1173C103.229 69.2664 110.852 56.5554 110.831 41.0198C110.831 19.3364 103.645 9.47091 96.9775 9.47091" fill="#FEF6ED"/>
</svg>
