<svg width="500" height="500" viewBox="0 0 500 500" fill="none" xmlns="http://www.w3.org/2000/svg">
<path d="M274.52 186.254L256.115 167.912C256.115 167.912 255.896 167.599 255.739 167.442L255.677 166.816H255.145C254.832 166.597 254.519 166.441 254.206 166.347L254.049 166.284C253.048 165.815 251.639 165.909 250.951 166.284C250.325 166.503 249.855 166.91 249.479 167.286C249.323 167.442 249.166 167.599 249.104 167.755L230.605 186.254C213.578 203.125 204.313 225.629 204.313 249.668C204.313 273.707 213.609 296.243 230.605 313.176L249.479 332.113C249.855 332.426 250.325 332.801 250.794 332.958C251.483 333.334 252.046 333.334 252.484 333.334C253.173 333.334 253.736 333.271 254.018 333.021C254.55 332.864 255.113 332.551 255.552 332.082L274.488 313.145C291.422 296.118 300.781 273.55 300.781 249.637C300.781 225.723 291.422 203.156 274.488 186.222L274.52 186.254ZM248.227 230.011L241.811 221.435C241.122 220.496 240.027 219.901 238.869 219.745C237.773 219.682 236.709 219.901 235.77 220.59C234.831 221.279 234.299 222.28 234.08 223.376C233.923 224.534 234.236 225.692 234.925 226.537L248.227 244.472V272.705L231.826 250.576C230.355 248.635 227.726 248.259 225.785 249.637C223.845 251.108 223.469 253.737 224.846 255.678L248.196 287.166V318.654L236.584 307.041C221.278 291.736 212.827 271.39 212.827 249.637C212.827 227.883 221.247 207.569 236.584 192.232L248.196 180.62V229.98L248.227 230.011ZM268.416 307.041L256.804 318.654V287.322L280.31 255.678C281.687 253.737 281.312 251.108 279.309 249.637C278.37 248.948 277.211 248.635 276.147 248.854C274.989 249.011 274.05 249.637 273.455 250.544L256.835 272.893V244.66L270.232 226.475C270.92 225.629 271.233 224.471 271.077 223.376C270.92 222.218 270.294 221.216 269.386 220.527C267.54 219.15 264.817 219.526 263.345 221.373L256.835 230.199V180.62L268.447 192.232C283.847 207.538 292.267 227.977 292.267 249.637C292.267 260.373 290.17 270.827 286.163 280.718C282.063 290.452 276.116 299.373 268.447 307.01L268.416 307.041Z" fill="#F5B067"/>
<path d="M145.343 101.774C146.345 100.929 146.877 100.772 147.378 101.398C148.192 102.369 146.502 103.621 148.192 105.655L161.338 121.493C162.089 122.432 162.058 123.027 161.307 123.622C160.555 124.248 159.898 124.091 159.46 123.59C158.865 122.87 158.114 122.589 156.924 122.432L134.044 120.022L143.904 131.791C145.594 133.825 147.096 132.354 147.941 133.387C148.473 134.013 148.129 134.483 147.19 135.265L144.561 137.425C143.559 138.27 143.027 138.395 142.526 137.801C141.713 136.83 143.403 135.578 141.713 133.544L131.728 121.493C128.504 117.612 127.534 120.429 126.25 118.895C125.718 118.238 126.031 117.675 127.221 116.673L129.599 114.701C130.225 114.169 130.789 114.138 131.634 114.232L153.701 116.673L146.001 107.408C144.311 105.374 142.777 106.876 141.932 105.812C141.4 105.186 141.775 104.685 142.714 103.902L145.343 101.743V101.774Z" fill="#EB6654"/>
<path d="M180.681 109.005C181.37 110.131 180.212 112.354 178.615 113.324C177.144 114.2 175.83 113.919 174.327 112.573C173.795 115.233 172.011 117.362 170.039 118.551C166.346 120.773 162.684 120.085 161.025 117.33C159.115 114.138 160.524 110.194 165.219 107.346C166.064 106.814 166.815 106.532 168.036 106C166.189 104.278 164.53 103.026 162.026 104.529C160.524 105.436 159.554 106.876 158.771 108.253C158.395 109.036 157.394 108.942 157.394 107.815C157.394 105.937 158.896 102.713 162.058 100.804C166.283 98.2373 169.319 100.397 171.698 102.713L177.082 107.972C178.271 109.098 179.022 109.286 179.711 108.817C180.086 108.598 180.431 108.598 180.681 109.005ZM172.261 110.413C171.823 109.912 171.041 109.255 170.039 108.285C169.351 107.659 167.848 108.097 166.784 108.754C164.436 110.163 163.748 112.197 164.875 114.013C166.033 115.891 168.286 116.423 170.415 115.139C172.261 114.013 173.357 111.602 172.261 110.413Z" fill="#EB6654"/>
<path d="M191.981 102.682C192.2 104.498 191.292 107.346 188.35 108.723C185.189 110.195 182.466 109.068 180.807 105.499L179.962 103.684C178.522 100.554 177.332 97.8935 176.55 96.0155L175.611 96.4537C174.672 96.8919 174.234 96.7041 173.952 96.1094C173.764 95.7025 173.702 95.2017 173.952 94.6696C174.641 92.729 175.674 90.5693 176.706 89.0356C177.301 88.1905 177.552 88.034 177.771 87.9401C178.271 87.721 178.804 88.034 178.991 88.5661C179.336 89.5677 179.743 90.538 180.181 91.6335L183.655 90.0372C184.312 89.7242 184.97 89.6303 185.251 90.7884C185.533 91.9465 185.001 92.3847 184.281 92.6664L181.214 93.9497C182.121 95.8903 183.217 98.2691 184.657 101.462C186.065 104.592 187.004 105.312 188.569 104.592C189.477 104.154 190.134 103.308 190.635 102.401C191.073 101.587 191.887 101.806 191.981 102.651V102.682Z" fill="#EB6654"/>
<path d="M208.57 87.5015L210.699 93.8868C211.575 96.5786 213.516 95.264 213.86 96.3282C214.016 96.829 213.797 97.3611 213.14 98.081C212.232 99.02 210.417 100.397 209.384 100.742C208.351 101.086 207.725 100.648 207.13 99.1139L206.755 98.1436C205.91 100.648 203.938 102.526 201.966 103.183C197.991 104.498 194.861 102.557 193.327 97.8619L191.731 93.0417C190.886 90.5064 189.227 91.3515 188.851 90.2559C188.695 89.7864 188.851 89.4421 189.602 88.7535C190.917 87.5015 193.264 85.7487 193.828 85.5609C194.422 85.3731 194.767 85.6235 195.048 86.3747L196.676 91.4141L198.178 95.9526C199.117 98.7383 200.463 100.241 202.654 99.4895C204.595 98.8009 205.91 96.0778 204.877 92.9791L203.593 89.1291C202.748 86.5938 201.089 87.4389 200.714 86.3434C200.557 85.8739 200.714 85.5296 201.465 84.841C202.78 83.589 205.127 81.8362 205.691 81.6484C206.285 81.4606 206.63 81.711 206.911 82.4622L208.539 87.5015H208.57Z" fill="#EB6654"/>
<path d="M226.661 80.5845C226.974 82.1182 226.348 83.245 225.316 83.4954C223.469 83.871 223.156 81.8678 221.309 82.2434C219.932 82.5251 219.024 84.3718 219.556 87.1262L220.558 92.2595C221.247 95.7964 222.905 94.5444 223.25 96.2346C223.406 96.9858 222.843 97.2988 221.779 97.5179L216.364 98.5821C215.299 98.8012 214.58 98.7073 214.423 97.9561C214.11 96.3285 216.176 96.8293 215.456 93.2924L214.016 86.0933C213.797 85.0291 213.265 84.4344 212.389 84.0275C211.95 83.8397 211.575 83.6519 211.45 83.1198C211.324 82.5251 211.575 82.1808 212.42 81.5861C213.703 80.6158 215.894 79.489 216.52 79.3012C217.177 79.176 217.522 79.489 217.647 80.2715L218.085 82.4938C219.024 79.8959 220.808 78.3935 222.655 78.0492C224.815 77.611 226.317 78.7691 226.693 80.6471L226.661 80.5845Z" fill="#EB6654"/>
<path d="M249.948 91.7586C250.074 93.0732 248.039 94.5443 246.192 94.7008C244.502 94.8573 243.407 94.0122 242.687 92.1342C241.059 94.2939 238.493 95.3894 236.208 95.6085C231.92 95.9841 228.946 93.7618 228.664 90.5379C228.351 86.8444 231.356 83.9022 236.834 83.4327C237.835 83.3388 238.618 83.4014 239.932 83.464C239.025 81.0852 238.086 79.2385 235.206 79.4889C233.485 79.6454 231.951 80.4905 230.636 81.3982C229.948 81.9303 229.071 81.3982 229.572 80.3966C230.386 78.7064 233.172 76.4841 236.865 76.1711C241.779 75.7642 243.563 79.0194 244.659 82.1494L247.163 89.2233C247.726 90.757 248.321 91.2578 249.166 91.1326C249.604 91.1013 249.917 91.2578 249.948 91.7273V91.7586ZM241.779 89.2859C241.623 88.6286 241.184 87.7208 240.715 86.4062C240.371 85.5298 238.837 85.2794 237.585 85.4046C234.862 85.655 233.359 87.1574 233.547 89.2859C233.766 91.4769 235.519 92.948 238.023 92.7289C240.183 92.5411 242.217 90.8509 241.779 89.3172V89.2859Z" fill="#EB6654"/>
<path d="M252.516 73.4165C252.547 70.756 250.7 71.0064 250.731 69.817C250.731 69.3162 251.044 69.0345 251.983 68.6276C253.58 67.8764 256.365 67 256.991 67C257.649 67 257.93 67.3756 257.899 68.1894L257.774 73.4791L257.524 89.098C257.461 92.6975 259.339 91.8211 259.308 93.5426C259.308 94.3251 258.682 94.5129 257.586 94.4816L252.046 94.3877C250.951 94.3877 250.262 94.1373 250.293 93.3548C250.293 91.6959 252.234 92.6036 252.296 89.0041L252.516 73.3852V73.4165Z" fill="#EB6654"/>
<path d="M291.296 78.5811C290.545 78.7063 290.138 78.2681 289.637 77.1726C288.541 74.5121 287.133 73.041 284.66 72.6341L282.907 72.3524C280.028 71.8829 279.433 72.3524 279.214 73.5105L278.494 77.8299C278.244 79.4262 279.089 79.8644 280.748 80.1148L281.468 80.24C284.66 80.7721 284.629 79.4262 285.912 79.6453C286.632 79.7705 286.82 80.2713 286.883 80.9912L287.133 85.4672C287.164 86.8757 286.914 87.1887 286.163 87.2826C284.285 87.4078 284.754 83.2449 281.092 82.6502L280.372 82.525C278.744 82.2433 277.774 82.3372 277.492 83.9648L276.553 89.7553C275.802 94.2938 278.4 93.6365 278.087 95.452C277.962 96.2658 277.367 96.4223 275.802 96.1719L269.73 95.1702C268.196 94.9198 267.633 94.5442 267.758 93.7617C268.071 91.915 270.387 93.4174 271.139 88.8789L273.392 75.0129C274.206 70.0362 271.452 71.163 271.765 69.1911C271.89 68.346 272.547 68.2208 274.081 68.4712L288.792 70.8813C291.014 71.2569 291.546 71.5386 291.765 72.728C291.953 73.8235 292.11 75.1694 292.11 76.8283C292.11 77.8925 291.953 78.5185 291.233 78.6124L291.296 78.5811Z" fill="#EB6654"/>
<path d="M296.335 78.8942C297.024 76.3276 295.177 76.0772 295.49 74.9817C295.616 74.5122 295.991 74.3244 296.993 74.1366C298.714 73.7923 301.656 73.6358 302.251 73.7923C302.877 73.9488 303.065 74.387 302.846 75.1382L301.406 80.2401L297.306 95.3268C296.367 98.8011 298.401 98.4255 297.932 100.053C297.744 100.804 297.087 100.836 296.022 100.554L290.67 99.1141C289.637 98.8324 289.011 98.4255 289.23 97.6743C289.669 96.078 291.296 97.4239 292.235 93.9496L296.304 78.8629L296.335 78.8942Z" fill="#EB6654"/>
<path d="M319.185 106.438C318.715 107.659 316.242 108.128 314.521 107.471C312.925 106.876 312.33 105.624 312.486 103.621C310.076 104.842 307.291 104.716 305.131 103.903C301.124 102.369 299.403 99.0511 300.561 96.0462C301.907 92.5719 305.882 91.2573 311.015 93.2292C311.954 93.6048 312.643 93.9804 313.801 94.6377C314.02 92.1024 313.989 90.0366 311.297 89.0037C309.669 88.3777 307.917 88.5029 306.352 88.722C305.507 88.8785 304.943 88.0647 305.851 87.3761C307.322 86.218 310.796 85.4355 314.239 86.7501C318.872 88.5342 318.997 92.2276 318.653 95.5141L317.807 102.964C317.651 104.591 317.933 105.28 318.747 105.562C319.153 105.718 319.372 106 319.185 106.438ZM312.925 100.679C313.05 100.021 313.081 98.9885 313.238 97.6113C313.3 96.6722 312.048 95.7958 310.89 95.3263C308.324 94.356 306.32 95.0446 305.538 97.0478C304.787 99.1137 305.726 101.211 308.073 102.118C310.108 102.901 312.643 102.275 312.925 100.679Z" fill="#EB6654"/>
<path d="M341.189 99.9276C342.191 100.46 342.66 100.96 342.316 101.618C341.628 102.932 340.438 101.68 337.903 103.934L328.45 112.291C327.699 112.948 327.323 113.168 325.414 112.667C323.348 112.135 323.004 111.571 323.16 110.57L324.694 96.954C325.07 93.6049 323.411 93.3545 324.099 92.0399C324.475 91.3513 325.132 91.4765 326.04 91.9773L331.236 94.7317C332.206 95.2325 332.676 95.7646 332.331 96.3906C331.643 97.7052 329.953 96.1715 329.577 99.5519L328.45 109.318L335.774 102.838C338.278 100.585 336.213 100.084 336.901 98.8007C337.277 98.1121 337.903 98.2373 338.842 98.7381L341.189 99.9902V99.9276Z" fill="#EB6654"/>
<path d="M337.84 109.474C341.158 104.716 347.48 103.527 352.551 107.033C356.933 110.069 357.684 115.421 354.773 119.647C351.456 124.436 345.289 125.531 340.219 122.026C335.993 119.083 334.71 114.013 337.84 109.505V109.474ZM348.983 118.927C351.549 115.233 352.394 110.038 349.64 108.128C347.355 106.532 345.008 108.128 343.443 110.351C340.845 114.075 340.281 118.958 343.036 120.836C345.195 122.339 347.48 121.087 348.983 118.895V118.927Z" fill="#EB6654"/>
<path d="M371.8 127.096C370.767 128.254 369.515 128.473 368.67 127.785C367.262 126.533 368.67 125.061 367.262 123.841C366.229 122.902 364.194 123.277 362.316 125.374L358.842 129.287C356.463 131.979 358.435 132.542 357.308 133.826C356.808 134.42 356.213 134.139 355.399 133.419L351.267 129.756C350.454 129.037 350.078 128.411 350.61 127.816C351.706 126.564 352.582 128.536 354.961 125.844L359.844 120.366C360.564 119.553 360.72 118.739 360.501 117.8C360.376 117.33 360.313 116.892 360.658 116.516C361.064 116.047 361.471 116.047 362.442 116.36C363.975 116.798 366.229 117.862 366.73 118.238C367.231 118.676 367.168 119.146 366.636 119.709L365.134 121.399C367.763 120.586 370.048 121.118 371.425 122.338C373.084 123.809 373.052 125.687 371.8 127.096Z" fill="#EB6654"/>
<path d="M162.527 376.716C163.529 377.561 163.811 378.031 163.279 378.657C162.465 379.627 160.931 378.219 159.241 380.222L146.063 396.091C145.281 396.999 144.686 397.061 143.966 396.467C143.215 395.841 143.246 395.152 143.653 394.651C144.248 393.931 144.405 393.149 144.342 391.959L142.495 368.985L132.73 380.848C131.039 382.882 132.73 384.103 131.884 385.136C131.352 385.762 130.852 385.543 129.913 384.729L127.283 382.569C126.282 381.724 126.031 381.223 126.532 380.629C127.346 379.658 128.88 381.067 130.57 379.064L140.586 367.013C143.81 363.132 140.836 362.694 142.151 361.16C142.683 360.503 143.309 360.722 144.498 361.723L146.877 363.695C147.503 364.227 147.628 364.791 147.722 365.605L149.381 387.765L157.112 378.5C158.803 376.466 157.05 375.245 157.926 374.181C158.458 373.555 158.991 373.805 159.93 374.588L162.559 376.747L162.527 376.716Z" fill="#EB6654"/>
<path d="M169.069 409.518C168.381 410.645 165.877 410.677 164.312 409.706C162.841 408.83 162.465 407.515 162.966 405.543C160.368 406.326 157.645 405.731 155.673 404.542C151.979 402.319 150.884 398.782 152.543 396.028C154.452 392.835 158.615 392.241 163.31 395.089C164.186 395.621 164.781 396.122 165.814 396.936C166.471 394.494 166.816 392.428 164.312 390.926C162.809 390.018 161.088 389.831 159.491 389.768C158.615 389.768 158.239 388.86 159.21 388.328C160.869 387.42 164.406 387.264 167.598 389.173C171.824 391.74 171.354 395.402 170.415 398.595L168.287 405.794C167.817 407.359 168.005 408.11 168.756 408.517C169.132 408.736 169.288 409.049 169.038 409.456L169.069 409.518ZM163.905 402.726C164.155 402.1 164.343 401.099 164.75 399.753C164.969 398.845 163.873 397.75 162.841 397.092C160.493 395.684 158.365 396.028 157.269 397.843C156.174 399.753 156.706 401.975 158.865 403.29C160.712 404.416 163.341 404.229 163.905 402.726Z" fill="#EB6654"/>
<path d="M183.467 414.715C182.215 416.061 179.461 417.187 176.518 415.841C173.357 414.37 172.449 411.553 174.108 407.985L174.953 406.17C176.393 403.04 177.676 400.41 178.584 398.595L177.645 398.157C176.706 397.719 176.55 397.28 176.831 396.686C177.019 396.279 177.364 395.903 177.927 395.747C179.836 395.027 182.152 394.432 183.999 394.213C185.032 394.119 185.314 394.213 185.533 394.338C186.034 394.557 186.128 395.183 185.846 395.684C185.314 396.592 184.813 397.499 184.281 398.595L187.755 400.223C188.412 400.536 188.913 400.974 188.193 401.913C187.505 402.883 186.816 402.758 186.128 402.414L183.154 400.911C182.246 402.852 181.151 405.231 179.617 408.392C178.146 411.491 178.177 412.68 179.774 413.4C180.681 413.838 181.777 413.776 182.778 413.556C183.686 413.369 184.03 414.151 183.467 414.777V414.715Z" fill="#EB6654"/>
<path d="M207.882 413.807L205.753 420.192C204.877 422.884 207.193 422.978 206.849 424.042C206.692 424.543 206.191 424.825 205.221 425.013C203.938 425.232 201.653 425.263 200.62 424.919C199.587 424.574 199.337 423.854 199.775 422.289L200.056 421.288C197.897 422.822 195.174 423.135 193.202 422.477C189.227 421.163 187.881 417.751 189.446 413.056L191.042 408.236C191.887 405.7 190.04 405.387 190.385 404.26C190.541 403.791 190.886 403.603 191.887 403.509C193.671 403.29 196.613 403.29 197.177 403.478C197.772 403.666 197.897 404.073 197.646 404.855L195.956 409.863L194.454 414.402C193.515 417.187 193.703 419.222 195.925 419.911C197.897 420.505 200.589 419.128 201.621 415.998L202.905 412.148C203.75 409.613 201.903 409.3 202.248 408.173C202.404 407.704 202.748 407.516 203.75 407.422C205.534 407.203 208.476 407.203 209.071 407.391C209.666 407.578 209.791 407.985 209.54 408.768L207.85 413.776L207.882 413.807Z" fill="#EB6654"/>
<path d="M227.35 414.621C227.037 416.123 226.067 416.968 224.971 416.78C223.124 416.405 223.594 414.464 221.747 414.088C220.37 413.807 218.805 415.153 218.273 417.938L217.24 423.072C216.52 426.609 218.523 426.076 218.21 427.767C218.054 428.518 217.428 428.58 216.364 428.393L210.949 427.297C209.884 427.078 209.258 426.734 209.415 425.951C209.728 424.324 211.449 425.576 212.169 422.039L213.609 414.84C213.828 413.775 213.547 413.024 212.889 412.304C212.576 411.96 212.263 411.616 212.388 411.084C212.514 410.489 212.858 410.27 213.86 410.051C215.393 409.644 217.897 409.425 218.492 409.519C219.149 409.644 219.337 410.082 219.181 410.833L218.742 413.087C220.62 411.052 222.843 410.364 224.658 410.708C226.818 411.146 227.757 412.774 227.381 414.652L227.35 414.621Z" fill="#EB6654"/>
<path d="M247.914 429.895C247.789 431.21 245.566 432.336 243.72 432.18C242.029 432.023 241.09 431.022 240.684 429.05C238.712 430.897 236.02 431.554 233.704 431.366C229.415 430.99 226.88 428.299 227.131 425.106C227.444 421.413 230.918 419.034 236.395 419.503C237.397 419.597 238.148 419.785 239.463 420.067C238.993 417.594 238.367 415.591 235.488 415.34C233.766 415.184 232.107 415.779 230.667 416.436C229.885 416.843 229.134 416.185 229.791 415.278C230.887 413.744 233.985 412.023 237.679 412.336C242.593 412.742 243.782 416.279 244.346 419.535L245.629 426.953C245.911 428.58 246.412 429.144 247.257 429.175C247.695 429.206 247.977 429.425 247.945 429.895H247.914ZM240.277 426.108C240.214 425.45 239.964 424.449 239.713 423.072C239.525 422.164 238.054 421.632 236.802 421.538C234.079 421.287 232.326 422.539 232.139 424.668C231.982 426.859 233.453 428.612 235.989 428.831C238.148 429.019 240.433 427.704 240.245 426.076L240.277 426.108Z" fill="#EB6654"/>
<path d="M252.171 410.99C252.14 408.329 250.262 408.611 250.262 407.453C250.262 406.952 250.543 406.671 251.482 406.232C253.047 405.419 255.833 404.448 256.428 404.448C257.085 404.448 257.367 404.793 257.367 405.606V410.896L257.649 426.515C257.711 430.114 259.558 429.175 259.589 430.897C259.589 431.679 258.994 431.867 257.899 431.899L252.359 431.992C251.263 431.992 250.575 431.805 250.575 431.022C250.575 429.363 252.484 430.208 252.453 426.609L252.171 410.99Z" fill="#EB6654"/>
<path d="M289.137 408.33C288.448 408.674 287.947 408.392 287.134 407.516C285.256 405.356 283.44 404.386 280.967 404.793L279.215 405.075C276.366 405.544 275.897 406.17 276.085 407.359L276.773 411.679C277.024 413.275 277.994 413.4 279.622 413.119L280.341 412.993C283.534 412.461 283.065 411.209 284.379 411.022C285.099 410.896 285.443 411.335 285.725 411.992L287.384 416.155C287.885 417.501 287.728 417.845 287.04 418.158C285.318 418.878 284.41 414.778 280.748 415.372L280.029 415.498C278.401 415.748 277.493 416.155 277.775 417.782L278.714 423.573C279.465 428.112 281.687 426.672 281.969 428.487C282.094 429.301 281.594 429.645 280.029 429.896L273.956 430.866C272.423 431.116 271.765 430.96 271.64 430.146C271.327 428.299 274.05 428.957 273.299 424.418L271.045 410.552C270.232 405.575 267.978 407.516 267.634 405.544C267.508 404.699 268.072 404.386 269.605 404.136L284.317 401.757C286.539 401.412 287.134 401.506 287.728 402.571C288.229 403.541 288.824 404.793 289.356 406.327C289.7 407.328 289.732 407.985 289.074 408.298L289.137 408.33Z" fill="#EB6654"/>
<path d="M292.298 406.044C291.609 403.478 289.888 404.229 289.575 403.102C289.45 402.633 289.669 402.257 290.451 401.631C291.766 400.473 294.239 398.845 294.833 398.689C295.459 398.501 295.804 398.783 296.023 399.565L297.369 404.699L301.438 419.785C302.377 423.26 303.942 421.914 304.38 423.541C304.568 424.292 304.036 424.637 303.003 424.918L297.65 426.358C296.618 426.64 295.866 426.609 295.679 425.858C295.24 424.261 297.337 424.605 296.398 421.131L292.267 406.076L292.298 406.044Z" fill="#EB6654"/>
<path d="M327.229 413.807C327.699 415.027 326.196 417.031 324.443 417.688C322.847 418.283 321.595 417.782 320.343 416.185C319.373 418.721 317.244 420.474 315.053 421.319C311.047 422.852 307.573 421.538 306.415 418.564C305.1 415.09 307.166 411.459 312.268 409.487C313.207 409.112 313.958 408.955 315.272 408.673C313.739 406.639 312.33 405.136 309.638 406.169C308.011 406.795 306.79 408.047 305.788 409.268C305.256 409.957 304.317 409.706 304.505 408.611C304.818 406.764 306.853 403.853 310.327 402.539C314.959 400.754 317.526 403.415 319.467 406.107L323.849 412.21C324.819 413.525 325.508 413.838 326.29 413.494C326.697 413.337 327.041 413.4 327.198 413.838L327.229 413.807ZM318.715 413.744C318.371 413.181 317.714 412.398 316.9 411.271C316.337 410.551 314.772 410.708 313.645 411.146C311.078 412.116 310.077 414.026 310.828 415.998C311.642 418.032 313.739 418.971 316.086 418.063C318.121 417.281 319.592 415.09 318.715 413.744Z" fill="#EB6654"/>
<path d="M336.4 390.582C337.402 390.05 338.09 389.956 338.435 390.582C339.123 391.897 337.433 392.147 337.84 395.528L339.405 408.048C339.53 409.018 339.499 409.488 337.997 410.771C336.369 412.18 335.743 412.148 334.992 411.428L324.569 402.477C322.002 400.286 320.844 401.506 320.187 400.192C319.811 399.503 320.312 399.034 321.251 398.533L326.447 395.778C327.417 395.277 328.106 395.184 328.45 395.81C329.139 397.124 326.916 397.656 329.514 399.879L336.932 406.326L335.712 396.623C335.242 393.274 333.708 394.714 333.02 393.399C332.644 392.711 333.114 392.241 334.084 391.741L336.432 390.489L336.4 390.582Z" fill="#EB6654"/>
<path d="M343.442 398.126C340.124 393.368 341.22 387.014 346.259 383.509C350.641 380.473 355.9 381.599 358.842 385.825C362.191 390.614 361.033 396.78 355.993 400.286C351.768 403.228 346.572 402.633 343.442 398.126ZM356.15 390.958C353.583 387.265 349.014 384.667 346.259 386.576C343.974 388.173 344.631 390.927 346.196 393.181C348.794 396.905 353.145 399.128 355.9 397.218C358.059 395.716 357.684 393.149 356.15 390.958Z" fill="#EB6654"/>
<path d="M368.952 369.235C369.985 370.394 370.048 371.677 369.265 372.428C367.857 373.68 366.573 372.115 365.196 373.367C364.163 374.306 364.288 376.341 366.135 378.469L369.61 382.382C371.988 385.073 372.802 383.164 373.929 384.447C374.43 385.042 374.117 385.574 373.303 386.294L369.171 389.956C368.357 390.676 367.7 390.958 367.168 390.394C366.073 389.142 368.107 388.548 365.728 385.856L360.845 380.347C360.125 379.533 359.343 379.283 358.373 379.377C357.903 379.439 357.465 379.471 357.089 379.064C356.683 378.594 356.745 378.187 357.152 377.248C357.747 375.777 359.093 373.68 359.531 373.242C360.032 372.804 360.47 372.929 361.002 373.492L362.504 375.214C362.003 372.491 362.786 370.3 364.195 369.079C365.853 367.608 367.731 367.858 368.983 369.298L368.952 369.235Z" fill="#EB6654"/>
</svg>
