<svg width="500" height="500" viewBox="0 0 500 500" fill="none" xmlns="http://www.w3.org/2000/svg">
<path d="M347.108 239.536L325.667 169.267C325.667 169.267 325.604 169.048 325.542 168.954C325.51 168.735 325.385 168.485 325.229 168.266C325.072 168.015 324.916 167.765 324.728 167.546C324.509 167.296 324.321 167.076 324.008 166.92C323.726 166.763 323.476 166.67 323.163 166.576C322.756 166.357 322.287 166.294 321.754 166.294L264.694 168.548C264.006 168.548 263.348 168.735 262.754 169.111L218.558 196.373L228.605 206.421L271.299 206.89L283.349 246.673L283.412 246.767L283.506 247.142L283.631 247.455L289.766 267.582L298.436 276.252L345.574 243.825C346.982 242.823 347.546 241.07 347.076 239.474L347.108 239.536ZM229.669 198.721L230.859 198.001L265.977 176.279L307.325 174.651H308.702L272.957 199.19L229.669 198.69V198.721ZM297.841 267.331L278.717 204.637L319.751 176.435L338.813 239.067L297.841 267.331ZM267.417 285.517L260.469 316.41L210.889 320.698L225.287 256.783L228.699 256.47L234.051 274.029C234.521 275.626 236.023 276.784 237.745 276.784L258.966 277.034L251.11 269.178L240.687 269.084L236.618 255.813L236.117 254.185L224.505 242.573L226.445 248.958L223.096 249.271L185.692 227.392L208.479 226.547L200.967 219.035L172.139 220.068H171.983C171.764 220.068 171.545 220.13 171.357 220.162C171.2 220.162 170.981 220.224 170.825 220.318C170.668 220.381 170.512 220.443 170.418 220.475C170.261 220.6 170.167 220.631 170.011 220.756C169.886 220.756 169.854 220.756 169.792 220.85C169.479 221.038 169.26 221.32 169.072 221.633H169.009C168.853 221.821 168.759 222.04 168.665 222.259C168.509 222.509 168.383 222.822 168.352 223.135L168.289 223.448L152.107 294.969C151.7 296.628 152.483 298.287 153.923 299.163L203.972 328.398C203.972 328.398 204.285 328.554 204.441 328.586C204.66 328.711 204.848 328.742 205.13 328.805C205.38 328.867 205.631 328.899 205.944 328.899H206.726L263.974 323.922C265.664 323.765 267.073 322.513 267.449 320.917L273.959 292.058L267.417 285.517ZM203.314 318.976L160.308 293.874L174.675 229.99L217.65 255.061L203.314 318.976Z" fill="#F5B067"/>
<path d="M187.414 75.8044C188.603 75.2723 189.167 75.241 189.48 75.9922C189.98 77.1503 188.04 77.9015 189.104 80.3117L197.399 99.1857C197.868 100.281 197.649 100.845 196.773 101.22C195.896 101.596 195.27 101.283 195.02 100.688C194.644 99.843 194.018 99.3422 192.923 98.8727L171.576 90.2651L177.805 104.288C178.869 106.698 180.716 105.727 181.248 106.948C181.561 107.699 181.123 108.044 179.996 108.544L176.866 109.922C175.676 110.454 175.113 110.454 174.8 109.734C174.299 108.576 176.24 107.825 175.175 105.414L168.884 91.0789C166.85 86.4778 165.159 88.9192 164.346 87.0725C164.001 86.29 164.471 85.8205 165.911 85.2258L168.759 83.9738C169.51 83.6608 170.074 83.786 170.825 84.0677L191.389 92.4874L186.537 81.4385C185.473 79.0283 183.595 80.03 183.063 78.7779C182.75 78.0267 183.22 77.6511 184.346 77.1503L187.476 75.7731L187.414 75.8044Z" fill="#EB6654"/>
<path d="M197.711 91.9244C196.209 86.3217 199.402 80.719 205.349 79.1226C210.513 77.7454 215.083 80.6251 216.398 85.5705C217.9 91.2045 214.739 96.6195 208.792 98.2158C203.815 99.5304 199.12 97.2455 197.711 91.9244ZM212.141 89.5143C210.983 85.1949 207.571 81.1572 204.347 82.0336C201.655 82.7535 201.342 85.5705 202.031 88.1997C203.189 92.5817 206.538 96.15 209.762 95.3049C212.297 94.6163 212.829 92.0809 212.141 89.5143Z" fill="#EB6654"/>
<path d="M231.704 92.9573C230.577 93.0512 230.483 93.8024 229.7 93.8337C228.98 93.8963 228.48 93.4581 228.073 91.8305C227.603 90.0151 227.165 88.2623 226.852 86.2591C226.727 85.2261 226.852 84.5375 227.603 84.5062C228.292 84.4436 228.636 84.8818 229.419 85.9773C230.702 88.0432 233.237 90.9854 237.588 90.6724C240.436 90.4533 241.5 88.6379 241.438 86.7912C241.313 84.1306 237.964 82.9412 234.583 81.5327C230.201 79.7486 226.664 78.4653 226.32 73.9268C226.007 69.7325 229.669 65.9452 235.366 65.507C237.244 65.3505 238.871 65.7887 239.779 65.6948C240.749 65.6322 240.937 65.0688 241.688 65.0062C242.377 64.9436 242.846 65.3192 243.316 66.9468C243.723 68.2614 244.161 69.8264 244.443 71.5166C244.599 72.5495 244.443 73.2382 243.598 73.3008C242.972 73.3634 242.471 72.8939 241.657 71.8296C240.248 70.0455 237.964 67.7606 234.959 68.011C232.486 68.1988 231.234 69.7012 231.391 71.6105C231.578 74.0833 233.863 75.1162 238.057 76.8377C242.659 78.7157 246.446 79.9364 246.822 84.2558C247.291 89.4204 242.565 92.8008 237.369 93.2077C234.489 93.4268 232.736 92.8634 231.672 92.9573H231.704Z" fill="#EB6654"/>
<path d="M269.045 80.7187L268.638 87.4482C268.481 90.2652 270.735 89.7957 270.672 90.8912C270.641 91.4233 270.234 91.8302 269.358 92.2371C268.168 92.8005 265.946 93.3952 264.882 93.3326C263.786 93.27 263.379 92.6127 263.379 90.9851V89.9522C261.689 91.9867 259.154 92.9883 257.057 92.8631C252.894 92.6127 250.703 89.6705 250.985 84.7251L251.298 79.6544C251.454 76.9939 249.576 77.1504 249.639 75.9923C249.639 75.4915 249.952 75.2411 250.922 74.8655C252.581 74.1769 255.429 73.4257 256.055 73.457C256.681 73.4883 256.932 73.8639 256.869 74.6777L256.525 79.9674L256.243 84.7564C256.055 87.6986 256.775 89.5766 259.091 89.7018C261.126 89.7957 263.379 87.7612 263.599 84.4747L263.849 80.4057C264.005 77.7451 262.127 77.9016 262.221 76.7435C262.221 76.2427 262.534 75.9923 263.473 75.6167C265.132 74.9281 267.981 74.1769 268.607 74.2082C269.233 74.2395 269.483 74.6151 269.42 75.4289L269.076 80.7187H269.045Z" fill="#EB6654"/>
<path d="M289.86 98.6227C289.077 102.692 284.132 104.476 277.496 103.161C273.427 102.379 269.139 100.156 269.796 96.8699C270.015 95.6805 271.111 94.5537 272.801 94.272C271.58 93.333 270.798 92.0184 271.111 90.4846C271.392 89.0761 272.519 88.0119 274.773 87.5111C273.333 86.1339 272.676 84.3498 273.083 82.3466C273.865 78.3715 278.31 75.8361 283.412 76.7125L284.194 76.8691C285.102 77.0882 285.509 77.2447 286.26 77.4012C287.105 77.5577 288.42 77.4012 290.079 76.0552C290.611 75.617 291.174 75.3353 291.863 75.4605C292.708 75.617 293.303 76.3995 293.115 77.3699C292.77 79.0914 290.736 79.6861 288.921 79.6235C290.016 80.9694 290.486 82.6909 290.11 84.5376C289.327 88.5753 285.258 90.829 280.094 89.9525C278.685 89.7021 277.433 89.2639 276.4 88.7318C275.931 88.9509 275.524 89.3578 275.43 89.8273C275.18 91.1107 276.62 91.7993 278.435 92.1436C280.595 92.5818 283.725 92.7696 285.352 93.1139C288.889 93.8025 290.392 96.0874 289.891 98.654L289.86 98.6227ZM284.945 99.3739C285.133 98.4662 284.726 97.4333 282.817 97.1829C280.783 96.776 279.03 96.6821 276.713 96.1813C275.587 95.9309 274.303 96.1813 274.053 97.4646C273.709 99.1861 275.681 100.469 278.967 101.095C282.598 101.815 284.601 101.064 284.945 99.3426V99.3739ZM278.278 81.7206C277.715 84.6002 278.529 87.5111 281.096 88.0119C282.88 88.3562 284.382 87.0729 284.852 84.7567C285.321 82.2214 284.664 79.0601 282.128 78.5593C280.313 78.215 278.717 79.4983 278.278 81.6893V81.7206Z" fill="#EB6654"/>
<path d="M310.455 101.784C310.048 103.036 307.607 103.599 305.854 103.004C304.226 102.472 303.569 101.252 303.663 99.2484C301.284 100.563 298.53 100.563 296.339 99.8431C292.27 98.4659 290.423 95.242 291.456 92.2059C292.645 88.7002 296.558 87.1978 301.785 88.9506C302.755 89.2636 303.444 89.6392 304.633 90.2339C304.758 87.6986 304.633 85.6328 301.879 84.6938C300.22 84.1304 298.498 84.3182 296.933 84.6312C296.088 84.8503 295.494 84.0365 296.37 83.2853C297.81 82.0646 301.222 81.1256 304.727 82.315C309.422 83.88 309.735 87.6047 309.516 90.8912L308.984 98.4033C308.89 100.031 309.234 100.72 310.048 100.97C310.455 101.095 310.674 101.377 310.549 101.815L310.455 101.784ZM303.945 96.2749C304.039 95.6176 304.039 94.5847 304.132 93.2075C304.132 92.2685 302.849 91.4233 301.691 91.0477C299.093 90.1713 297.09 90.9851 296.433 92.9884C295.775 95.0855 296.777 97.1513 299.156 97.9338C301.222 98.6224 303.757 97.9025 303.945 96.2749Z" fill="#EB6654"/>
<path d="M330.393 96.8075C329.736 98.216 328.546 98.7481 327.576 98.3412C325.855 97.5274 326.794 95.7433 325.135 94.9295C323.883 94.3348 322.036 95.2425 320.815 97.7778L318.562 102.473C316.997 105.728 319.062 105.728 318.311 107.262C317.967 107.95 317.341 107.856 316.371 107.387L311.394 104.977C310.424 104.507 309.891 104.007 310.236 103.287C310.956 101.784 312.302 103.412 313.867 100.188L317.059 93.5523C317.529 92.5819 317.435 91.7681 316.997 90.923C316.778 90.5161 316.558 90.1092 316.809 89.6397C317.091 89.0763 317.466 88.9824 318.499 88.9824C320.095 88.9824 322.568 89.3893 323.131 89.6084C323.726 89.8901 323.789 90.3596 323.476 91.0482L322.505 93.1141C324.822 91.6116 327.138 91.4864 328.828 92.2689C330.831 93.2393 331.301 95.0547 330.487 96.7449L330.393 96.8075Z" fill="#EB6654"/>
<path d="M198.15 394.598C199.339 395.13 199.746 395.505 199.402 396.257C198.901 397.415 197.023 396.476 195.959 398.886L187.664 417.76C187.195 418.855 186.631 419.074 185.724 418.699C184.847 418.323 184.659 417.635 184.941 417.04C185.317 416.195 185.254 415.412 184.847 414.254L176.74 392.688L170.637 406.773C169.573 409.184 171.545 409.872 171.013 411.124C170.7 411.875 170.136 411.781 168.978 411.281L165.848 409.903C164.659 409.371 164.283 408.964 164.596 408.245C165.097 407.086 166.975 408.025 168.039 405.615L174.33 391.28C176.365 386.679 173.391 387.054 174.205 385.239C174.549 384.456 175.207 384.488 176.615 385.114L179.464 386.366C180.215 386.679 180.497 387.211 180.778 387.962L188.478 408.777L193.33 397.728C194.394 395.318 192.359 394.598 192.923 393.377C193.236 392.626 193.83 392.72 194.989 393.22L198.119 394.598H198.15Z" fill="#EB6654"/>
<path d="M195.145 412.94C196.647 407.337 202.188 404.05 208.135 405.647C213.299 407.024 215.835 411.781 214.489 416.758C212.986 422.392 207.54 425.522 201.624 423.926C196.647 422.611 193.737 418.261 195.145 412.94ZM208.823 418.01C209.981 413.691 209.011 408.495 205.787 407.65C203.095 406.93 201.405 409.215 200.717 411.844C199.558 416.226 200.685 420.984 203.878 421.86C206.413 422.549 208.135 420.608 208.823 418.01Z" fill="#EB6654"/>
<path d="M229.638 428.558C228.511 428.464 228.323 429.184 227.541 429.122C226.821 429.059 226.383 428.558 226.226 426.899C226.07 425.021 225.882 423.237 225.882 421.203C225.913 420.17 226.164 419.513 226.915 419.575C227.603 419.638 227.885 420.107 228.48 421.328C229.419 423.582 231.453 426.868 235.804 427.212C238.652 427.432 239.998 425.804 240.217 423.988C240.499 421.328 237.369 419.669 234.27 417.728C230.233 415.287 226.915 413.472 227.259 408.933C227.603 404.739 231.798 401.578 237.494 402.016C239.372 402.172 240.937 402.83 241.814 402.892C242.784 402.955 243.066 402.454 243.817 402.516C244.505 402.579 244.912 402.986 245.131 404.676C245.319 406.053 245.507 407.65 245.538 409.371C245.538 410.435 245.257 411.061 244.443 410.999C243.817 410.936 243.41 410.404 242.753 409.246C241.626 407.243 239.748 404.676 236.743 404.426C234.27 404.238 232.83 405.521 232.674 407.431C232.486 409.903 234.583 411.281 238.433 413.628C242.69 416.226 246.227 418.01 245.945 422.33C245.632 427.494 240.405 430.123 235.209 429.716C232.33 429.497 230.671 428.652 229.638 428.59V428.558Z" fill="#EB6654"/>
<path d="M269.17 416.57L269.577 423.3C269.734 426.117 271.956 425.365 272.018 426.492C272.05 427.024 271.705 427.494 270.86 427.995C269.734 428.683 267.605 429.528 266.541 429.591C265.445 429.654 264.945 429.059 264.788 427.463L264.694 426.43C263.223 428.652 260.844 429.935 258.747 430.06C254.584 430.311 252.049 427.619 251.767 422.674L251.454 417.603C251.298 414.942 249.451 415.318 249.388 414.16C249.388 413.659 249.608 413.377 250.515 412.908C252.08 412.032 254.803 410.936 255.429 410.905C256.055 410.873 256.337 411.186 256.4 412L256.681 417.29L256.963 422.079C257.151 425.021 258.059 426.805 260.375 426.649C262.409 426.492 264.413 424.207 264.225 420.921L263.974 416.852C263.818 414.191 261.971 414.567 261.909 413.409C261.909 412.908 262.128 412.626 263.035 412.157C264.6 411.28 267.323 410.185 267.949 410.153C268.575 410.122 268.857 410.435 268.92 411.249L269.201 416.539L269.17 416.57Z" fill="#EB6654"/>
<path d="M295.431 425.772C296.214 429.841 292.332 433.347 285.697 434.661C281.628 435.444 276.839 435.037 276.181 431.75C275.962 430.561 276.526 429.121 277.966 428.213C276.463 427.806 275.274 426.899 274.961 425.334C274.679 423.925 275.305 422.517 277.214 421.202C275.368 420.451 274.084 419.074 273.677 417.039C272.895 413.064 276.056 409.058 281.127 407.931L281.909 407.774C282.817 407.649 283.255 407.618 284.007 407.493C284.852 407.336 286.01 406.679 287.043 404.801C287.356 404.175 287.763 403.705 288.451 403.58C289.296 403.424 290.141 403.924 290.329 404.863C290.673 406.585 288.983 407.931 287.293 408.526C288.827 409.371 289.891 410.779 290.267 412.626C291.049 416.664 288.138 420.294 283.036 421.421C281.628 421.734 280.313 421.797 279.155 421.672C278.779 422.047 278.592 422.579 278.686 423.08C278.936 424.363 280.532 424.457 282.348 424.082C284.507 423.644 287.481 422.673 289.108 422.36C292.645 421.672 294.899 423.205 295.4 425.772H295.431ZM278.341 414.504C278.905 417.383 280.751 419.794 283.349 419.293C285.133 418.948 286.041 417.196 285.603 414.879C285.071 412.344 283.287 409.652 280.751 410.153C278.936 410.497 277.934 412.313 278.373 414.504H278.341ZM291.174 428.339C290.986 427.431 290.235 426.617 288.389 427.118C286.354 427.525 284.664 428.088 282.348 428.495C281.19 428.683 280.125 429.403 280.376 430.686C280.72 432.376 283.005 432.846 286.291 432.188C289.922 431.469 291.487 430.029 291.174 428.307V428.339Z" fill="#EB6654"/>
<path d="M317.623 414.661C318.03 415.913 316.433 417.822 314.68 418.417C313.053 418.949 311.801 418.417 310.643 416.758C309.547 419.23 307.356 420.921 305.165 421.672C301.096 423.049 297.653 421.578 296.651 418.542C295.462 415.036 297.684 411.468 302.912 409.715C303.851 409.402 304.633 409.246 305.948 409.027C304.508 406.929 303.162 405.364 300.408 406.272C298.749 406.836 297.497 408.025 296.432 409.214C295.869 409.903 294.93 409.59 295.18 408.494C295.587 406.648 297.747 403.831 301.253 402.641C305.948 401.076 308.42 403.831 310.267 406.585L314.399 412.876C315.306 414.254 315.995 414.598 316.778 414.285C317.184 414.16 317.529 414.222 317.685 414.661H317.623ZM309.109 414.222C308.796 413.628 308.139 412.845 307.387 411.656C306.855 410.905 305.29 411.03 304.132 411.405C301.534 412.282 300.439 414.128 301.127 416.132C301.879 418.198 303.913 419.23 306.292 418.417C308.358 417.728 309.923 415.6 309.109 414.191V414.222Z" fill="#EB6654"/>
<path d="M328.578 394.629C329.235 396.038 328.954 397.29 327.983 397.791C326.262 398.605 325.479 396.758 323.789 397.572C322.537 398.166 322.099 400.201 323.32 402.736L325.573 407.431C327.138 410.686 328.422 409.059 329.141 410.593C329.486 411.281 329.016 411.719 328.015 412.189L323.038 414.568C322.068 415.037 321.348 415.131 321.003 414.442C320.284 412.94 322.412 412.909 320.847 409.654L317.654 403.018C317.185 402.048 316.496 401.609 315.557 401.422C315.088 401.359 314.649 401.265 314.43 400.764C314.149 400.201 314.336 399.825 314.962 399.043C315.964 397.791 317.811 396.132 318.343 395.819C318.938 395.537 319.344 395.756 319.689 396.476L320.659 398.542C320.941 395.788 322.287 393.91 323.977 393.096C325.98 392.125 327.702 392.908 328.515 394.598L328.578 394.629Z" fill="#EB6654"/>
<path d="M320.909 313.373L315.432 318.851L276.651 280.101L265.884 269.303L229.638 233.057L215.083 218.502L178.4 181.819L183.846 176.341L224.88 217.376L276.933 269.428L284.82 277.316L320.909 313.373Z" fill="#F5B067"/>
<path d="M177.93 170.394L183.877 176.341L178.4 181.819L172.453 175.872C170.95 174.369 170.95 171.928 172.453 170.394C173.955 168.892 176.428 168.892 177.93 170.394Z" fill="#F5B067"/>
<path d="M326.825 324.798C326.074 325.549 325.072 325.925 324.071 325.925C323.069 325.925 322.099 325.549 321.347 324.798L315.4 318.851L320.878 313.374L326.825 319.321C328.327 320.854 328.327 323.296 326.825 324.798Z" fill="#F5B067"/>
</svg>
