<svg width="500" height="500" viewBox="0 0 500 500" fill="none" xmlns="http://www.w3.org/2000/svg">
<g clip-path="url(#clip0_34_318)">
<path d="M321.981 354.398L389.86 368.159C398.63 370.655 407.686 364.808 408.684 356.109C409.397 350.405 409.611 344.558 409.326 338.711C408.969 330.298 400.698 324.309 391.999 326.162L322.765 340.851C315.279 342.419 314.708 352.401 321.91 354.469L321.981 354.398Z" fill="#F5AC6B"/>
<path d="M259.734 367.591L203.264 407.662C196.276 413.509 185.652 411.798 181.16 404.311C178.237 399.32 175.67 394.115 173.46 388.696C170.322 380.853 175.456 372.012 184.226 370.158L253.46 355.47C260.947 353.901 265.51 362.742 259.734 367.591Z" fill="#F5AC6B"/>
<path d="M300.448 367.018L316.063 440.886C317.846 449.443 327.543 454.006 336.027 450.441C359.343 440.53 378.452 424.13 391.286 404.095C396.135 396.537 392.284 386.697 383.514 384.059L310.074 358.747C304.655 357.107 299.307 361.742 300.448 367.018Z" fill="#F5AC6B"/>
<path d="M218.38 440.673C238.273 453.721 262.373 460.994 287.756 460.637C296.954 460.494 303.941 452.437 302.159 443.881L286.544 369.941C285.403 364.665 278.701 362.597 274.351 366.305L217.381 419.211C210.465 425.2 210.893 435.682 218.38 440.673Z" fill="#F5AC6B"/>
<path d="M316.277 481.1C393.496 464.701 443.693 391.759 428.22 318.461L418.095 320.6C432.427 388.337 385.796 455.788 314.138 470.975C242.479 486.162 172.533 443.381 158.201 375.645L148.076 377.784C163.62 451.082 239.057 497.428 316.277 481.1Z" fill="#F5AC6B"/>
<path d="M209.179 203.953L246.827 248.873C251.319 255.147 260.374 256.074 265.65 250.869C269.144 247.447 272.353 243.739 275.276 239.675C279.483 233.9 277.201 225.557 270.427 222.206L216.809 195.325C211.033 192.402 205.329 198.677 209.037 203.953H209.179Z" fill="#EF6D5B"/>
<path d="M160.98 179.852L102.441 176.572C94.7409 176.786 88.5377 170.013 89.6072 162.668C90.2489 157.82 91.3184 153.043 92.8158 148.266C94.8835 141.421 102.941 138.283 109.714 141.706L163.333 168.586C169.108 171.51 167.469 179.781 161.051 179.923L160.98 179.852Z" fill="#EF6D5B"/>
<path d="M188.217 200.958L159.554 258.141C156.203 264.772 160.196 272.901 167.754 274.969C188.431 280.744 209.751 279.888 228.859 273.471C236.132 271.047 238.699 262.491 234.278 256.145L198.984 200.601C196.275 196.679 190.285 196.893 188.217 200.958Z" fill="#EF6D5B"/>
<path d="M94.9544 206.378C101.229 225.558 113.35 243.098 130.32 256.217C136.523 260.995 145.365 259.283 148.716 252.724L177.379 195.54C179.447 191.404 176.024 186.556 171.247 186.698L105.578 191.689C97.8064 191.975 92.5301 199.176 94.9544 206.449V206.378Z" fill="#EF6D5B"/>
<path d="M138.449 284.808C198.2 314.755 270 293.008 298.45 236.252L290.607 232.33C264.296 284.737 197.843 304.773 142.371 276.965C86.8979 249.157 63.1544 183.916 89.4647 131.438L81.6215 127.517C53.1722 184.273 78.6269 254.79 138.449 284.737V284.808Z" fill="#EF6D5B"/>
<path d="M340.376 69.1183L382.159 55.4284C387.791 54.0736 390.929 48.013 388.79 42.8793C387.364 39.5281 385.652 36.2482 383.727 33.0397C380.875 28.4764 374.458 27.7633 370.251 31.5423L336.597 61.3464C332.961 64.555 335.741 70.2591 340.447 69.1183H340.376Z" fill="#F6D37B"/>
<path d="M310.073 95.9294L291.392 135.787C289.395 141.206 282.978 143.63 278.129 140.849C274.921 139.067 271.926 136.928 269.003 134.646C264.796 131.295 264.867 124.806 269.145 121.028L302.8 91.2235C306.436 88.0149 311.784 91.4374 310.073 95.9294Z" fill="#F6D37B"/>
<path d="M332.39 82.8085L364.19 118.744C367.898 122.88 374.671 122.381 378.165 117.746C387.933 104.983 393.352 89.9386 394.208 74.8227C394.493 69.1186 389.288 64.9118 383.655 66.1952L335.17 75.2505C331.677 76.0348 330.179 80.2416 332.461 82.8085H332.39Z" fill="#F6D37B"/>
<path d="M310.144 149.261C325.26 150.259 340.803 146.694 354.707 138.566C359.77 135.571 361.053 128.94 357.417 124.805L325.616 88.8685C323.335 86.3017 318.985 87.2999 317.773 90.6511L302.871 137.71C300.875 143.2 304.44 148.833 310.144 149.261Z" fill="#F6D37B"/>
<path d="M376.881 140.849C414.386 107.694 419.306 51.6508 387.791 16L382.871 20.3494C412.033 53.2907 407.399 105.127 372.532 136.001C337.666 166.803 285.687 165.092 256.524 132.222L251.605 136.571C283.12 172.222 339.377 174.147 376.881 140.92V140.849Z" fill="#F6D37B"/>
</g>
<defs>
<clipPath id="clip0_34_318">
<rect width="361" height="468.38" fill="white" transform="matrix(-1 0 0 1 431 16)"/>
</clipPath>
</defs>
</svg>
