<svg width="500" height="500" viewBox="0 0 500 500" fill="none" xmlns="http://www.w3.org/2000/svg">
<g clip-path="url(#clip0_34_265)">
<path d="M179.019 354.398L111.14 368.159C102.37 370.655 93.3144 364.808 92.3162 356.109C91.6032 350.405 91.3893 344.558 91.6745 338.711C92.031 330.298 100.302 324.309 109.001 326.162L178.235 340.851C185.721 342.419 186.292 352.401 179.09 354.469L179.019 354.398Z" fill="#F5AC6B"/>
<path d="M241.266 367.591L297.736 407.662C304.724 413.509 315.348 411.798 319.84 404.311C322.763 399.32 325.33 394.115 327.54 388.696C330.678 380.853 325.544 372.012 316.774 370.158L247.54 355.47C240.053 353.901 235.49 362.742 241.266 367.591Z" fill="#F5AC6B"/>
<path d="M200.552 367.018L184.937 440.886C183.155 449.443 173.458 454.006 164.973 450.441C141.657 440.53 122.548 424.13 109.714 404.095C104.866 396.537 108.716 386.697 117.486 384.059L190.927 358.747C196.345 357.107 201.693 361.742 200.552 367.018Z" fill="#F5AC6B"/>
<path d="M282.62 440.673C262.727 453.721 238.627 460.994 213.244 460.637C204.046 460.494 197.059 452.437 198.841 443.881L214.456 369.941C215.597 364.665 222.299 362.597 226.649 366.305L283.619 419.211C290.535 425.2 290.107 435.682 282.62 440.673Z" fill="#F5AC6B"/>
<path d="M184.724 481.1C107.504 464.701 57.3077 391.759 72.7801 318.461L82.9049 320.6C68.5733 388.337 115.205 455.788 186.863 470.975C258.521 486.162 328.468 443.381 342.799 375.645L352.924 377.784C337.38 451.082 261.943 497.428 184.724 481.1Z" fill="#F5AC6B"/>
<path d="M291.821 203.953L254.173 248.873C249.681 255.147 240.626 256.074 235.35 250.869C231.856 247.447 228.647 243.739 225.724 239.675C221.517 233.9 223.799 225.557 230.573 222.206L284.191 195.325C289.967 192.402 295.671 198.677 291.963 203.953H291.821Z" fill="#EF6D5B"/>
<path d="M340.02 179.852L398.559 176.572C406.259 176.786 412.462 170.013 411.393 162.668C410.751 157.82 409.682 153.043 408.184 148.266C406.116 141.421 398.059 138.283 391.286 141.706L337.667 168.586C331.892 171.51 333.531 179.781 339.949 179.923L340.02 179.852Z" fill="#EF6D5B"/>
<path d="M312.783 200.958L341.446 258.141C344.797 264.772 340.804 272.901 333.246 274.969C312.569 280.744 291.249 279.888 272.141 273.471C264.868 271.047 262.301 262.491 266.722 256.145L302.016 200.601C304.725 196.679 310.715 196.893 312.783 200.958Z" fill="#EF6D5B"/>
<path d="M406.046 206.378C399.771 225.558 387.65 243.098 370.68 256.217C364.477 260.995 355.635 259.283 352.284 252.724L323.621 195.54C321.553 191.404 324.976 186.556 329.753 186.698L395.422 191.689C403.194 191.975 408.47 199.176 406.046 206.449V206.378Z" fill="#EF6D5B"/>
<path d="M362.551 284.808C302.8 314.755 231 293.008 202.55 236.252L210.393 232.33C236.704 284.737 303.157 304.773 358.629 276.965C414.102 249.157 437.846 183.916 411.535 131.438L419.378 127.517C447.828 184.273 422.373 254.79 362.551 284.737V284.808Z" fill="#EF6D5B"/>
<path d="M160.624 69.1183L118.841 55.4284C113.208 54.0736 110.071 48.013 112.21 42.8793C113.636 39.5281 115.347 36.2482 117.272 33.0397C120.125 28.4764 126.542 27.7633 130.748 31.5423L164.403 61.3464C168.039 64.555 165.258 70.2591 160.553 69.1183H160.624Z" fill="#F6D37B"/>
<path d="M190.927 95.9294L209.608 135.787C211.605 141.206 218.022 143.63 222.87 140.849C226.079 139.067 229.074 136.928 231.997 134.646C236.204 131.295 236.132 124.806 231.854 121.028L198.2 91.2235C194.564 88.0149 189.216 91.4374 190.927 95.9294Z" fill="#F6D37B"/>
<path d="M168.61 82.8085L136.81 118.744C133.102 122.88 126.328 122.381 122.835 117.746C113.066 104.983 107.647 89.9386 106.792 74.8227C106.507 69.1186 111.712 64.9118 117.344 66.1952L165.829 75.2505C169.323 76.0348 170.821 80.2416 168.539 82.8085H168.61Z" fill="#F6D37B"/>
<path d="M190.856 149.261C175.74 150.259 160.196 146.694 146.292 138.566C141.23 135.571 139.946 128.94 143.583 124.805L175.383 88.8685C177.665 86.3017 182.014 87.2999 183.227 90.6511L198.129 137.71C200.125 143.2 196.56 148.833 190.856 149.261Z" fill="#F6D37B"/>
<path d="M124.119 140.849C86.6139 107.694 81.6941 51.6508 113.209 16L118.129 20.3494C88.9669 53.2907 93.6015 105.127 128.468 136.001C163.334 166.803 215.313 165.092 244.476 132.222L249.395 136.571C217.88 172.222 161.623 174.147 124.119 140.92V140.849Z" fill="#F6D37B"/>
</g>
<defs>
<clipPath id="clip0_34_265">
<rect width="361" height="468.38" fill="white" transform="translate(70 16)"/>
</clipPath>
</defs>
</svg>
