<svg width="908" height="421" viewBox="0 0 908 421" fill="none" xmlns="http://www.w3.org/2000/svg">
<g clip-path="url(#clip0_13_3)">
<path d="M108.465 50.651C103.064 50.651 98.0911 51.2767 94.1391 53.1375C99.3261 58.9502 102.241 66.426 102.241 75.1368C102.241 99.4249 79.8297 114.376 51.178 114.376C45.7769 114.376 40.1783 113.751 35.6006 112.713L30.8253 115.628C26.2641 118.114 24.3869 120.403 24.3869 122.692C24.3869 126.018 27.7132 127.467 35.6006 127.879L73.1772 129.954C83.7817 130.53 96.1975 132.309 104.398 139.751C112.186 146.832 112.845 158.359 109.486 167.827C108.333 171.054 106.687 174.117 104.628 176.867C95.9669 188.394 81.18 193.712 67.5128 196.248C55.1793 198.537 33.3941 196.544 21.9993 190.946C11.8229 185.94 3.32622 176.62 0.642174 165.456C-1.79487 155.279 2.89809 146.124 14.013 145.663C14.3588 145.663 14.7211 145.646 15.0669 145.646C16.9276 145.646 19.2164 145.86 22.3286 146.47C21.5053 148.956 21.0771 151.245 21.0771 153.534C21.0771 165.686 27.8284 178.991 39.7831 183.108C46.4027 185.38 53.4833 186.22 60.4486 185.644C67.2822 185.067 74.6922 183.355 80.2249 179.106C84.7532 175.632 88.1289 169.506 86.8115 163.644C85.7577 158.935 81.2129 156.564 76.8987 155.46C72.3374 154.291 67.5951 154.044 62.8857 153.814C51.2274 153.205 39.5855 152.595 27.9272 151.97C7.78865 150.932 0.938572 143.868 0.938572 133.708C0.938572 122.923 8.61197 116.682 20.649 111.297L25.0126 109.437C12.778 104.414 1.3667 94.8637 1.3667 77.6397C1.3667 53.1375 23.7941 38.614 53.4668 38.614C66.1296 38.614 77.3433 41.3145 85.6424 46.2874C89.5944 39.2232 95.8187 32.9989 104.744 32.9989C114.706 32.9989 118.032 41.1004 115.957 50.651H108.481H108.465ZM72.7656 76.7999C72.7656 58.9502 65.2898 47.5388 51.5896 47.5388C37.8895 47.5388 31.0394 58.5385 31.0394 75.5649C31.0394 93.6287 38.3011 105.452 52.0013 105.452C65.7014 105.452 72.7656 94.0403 72.7656 76.7999Z" fill="#3C3C3C"/>
<path d="M120.09 98.6016C120.09 62.9022 146.865 38.614 181.527 38.614C216.189 38.614 239.242 60.8274 239.242 95.2754C239.242 129.723 212.468 155.263 178.003 155.263C143.539 155.263 120.09 133.05 120.09 98.6016ZM204.695 86.3505C188.542 57.814 170.429 45.6288 154.176 54.8336C138.467 63.7255 140.443 82.3985 154.555 107.329C170.709 135.882 188.92 148.232 205.173 139.027C220.882 130.135 218.906 111.462 204.695 86.3505Z" fill="#3C3C3C"/>
<path d="M394.587 273.921C394.587 334.83 348.646 420.16 280.804 420.16C260.023 420.16 245.796 412.141 235.587 398.276L231.948 414.314L216.996 417.229L214.081 415.763L315.12 16.7794H282.302L283.389 10.9503L331.899 0.0164795L335.917 1.482L265.49 256.071L252.004 314.428H253.091C280.079 256.45 319.105 220.339 354.475 220.339C382.929 220.339 394.587 243.309 394.587 273.954M374.153 279.025C374.153 253.502 363.943 234.171 344.249 234.171C308.5 234.171 260.007 299.823 239.572 379.323C248.315 400.104 264.008 410.692 283.34 410.692C336.576 410.692 374.153 327.898 374.153 279.025Z" fill="#3C3C3C"/>
<path d="M431.423 336.642C431.061 340.66 430.699 345.023 430.699 349.041C430.699 386.601 448.565 405.571 472.639 405.571C492.333 405.571 516.045 392.809 536.825 368.01L544.482 372.391C518.597 404.122 488.315 420.16 462.792 420.16C433.251 420.16 410.28 398.276 410.28 352.68C410.28 287.769 456.963 220.306 522.236 220.306C550.312 220.306 568.194 232.705 568.194 253.123C568.194 294.701 492.333 322.415 431.44 336.642M432.51 327.536C482.107 315.136 548.484 288.51 548.484 253.502C548.484 240.016 538.637 229.066 518.218 229.066C474.088 229.066 440.546 279.025 432.51 327.536Z" fill="#3C3C3C"/>
<path d="M596.056 389.203C595.216 392.299 594.36 395.394 593.503 398.474C592.318 402.738 587.542 417.855 587.542 417.855H571.488C571.488 417.855 638.704 150.389 673.794 17.0264C662.778 16.9276 651.762 16.8288 640.746 16.73C640.153 16.73 642.59 11.8559 642.919 11.4772C644.451 9.69878 646.822 9.51765 649.028 8.94132C653.985 7.65693 658.958 6.52074 663.98 5.51628C674.008 3.52383 684.152 2.09124 694.344 1.23499C688.301 25.1444 682.258 49.0538 676.215 72.9632C670.171 96.8726 664.128 120.782 658.085 144.691C652.042 168.601 645.999 192.51 639.955 216.42C633.912 240.329 627.869 264.238 621.826 288.148C615.865 311.744 609.92 335.341 603.992 358.937C601.457 369.031 598.822 379.125 596.089 389.17" fill="#3C3C3C"/>
<path d="M678.207 389.203C677.367 392.299 676.511 395.394 675.655 398.474C674.469 402.738 669.694 417.855 669.694 417.855H653.639C653.639 417.855 720.855 150.389 755.945 17.0264C744.929 16.9276 733.913 16.8288 722.897 16.73C722.304 16.73 724.741 11.8559 725.071 11.4772C726.602 9.69878 728.973 9.51765 731.18 8.94132C736.136 7.65693 741.109 6.52074 746.131 5.51628C756.16 3.52383 766.303 2.09124 776.496 1.23499C770.452 25.1444 764.409 49.0538 758.366 72.9632C752.323 96.8726 746.28 120.782 740.236 144.691C734.193 168.601 728.15 192.51 722.107 216.42C716.064 240.329 710.02 264.238 703.977 288.148C698.016 311.744 692.072 335.341 686.144 358.937C683.608 369.031 680.973 379.125 678.24 389.17" fill="#3C3C3C"/>
<path d="M899.698 396.102L901.164 401.207C870.898 416.159 861.413 418.711 857.033 418.711C852.291 418.711 850.463 415.796 850.463 411.054C850.463 405.949 853.016 395.74 855.568 384.428L869.054 326.07H867.967C840.978 384.049 801.953 420.16 766.583 420.16C738.129 420.16 726.47 397.189 726.47 366.545C726.47 305.652 772.428 220.306 840.254 220.306C862.138 220.306 877.09 229.428 887.661 245.104L901.888 222.496L907.355 223.961L869.795 400.12L899.698 396.102ZM881.453 261.159C872.709 240.378 857.017 229.79 837.685 229.79C784.449 229.79 746.872 312.568 746.872 361.44C746.872 386.963 757.082 406.295 776.775 406.295C812.524 406.295 861.018 340.643 881.453 261.143" fill="#3C3C3C"/>
</g>
<defs>
<clipPath id="clip0_13_3">
<rect width="907.355" height="420.16" fill="white"/>
</clipPath>
</defs>
</svg>
